<svg width="604" height="602" viewBox="0 0 604 602" fill="none" xmlns="http://www.w3.org/2000/svg">
<g opacity="0.1">
<path d="M241.526 413.236C241.526 413.236 258.326 430.446 265.566 479.416C275.106 543.956 280.236 613.936 351.056 597.636C351.056 597.636 309.446 598.556 290.556 522.256C264.616 417.506 241.536 413.236 241.536 413.236H241.526Z" fill="white"/>
<path d="M219.446 398.196C219.446 398.196 232.296 418.526 229.196 467.936C225.106 533.056 215.576 602.566 288.236 601.346C288.236 601.346 247.346 593.596 244.726 515.036C241.136 407.186 219.446 398.206 219.446 398.206V398.196Z" fill="white"/>
<path d="M200.976 378.896C200.976 378.896 209.316 401.456 196.016 449.136C178.486 511.976 154.706 577.986 226.026 591.906C226.026 591.906 187.646 575.826 201.416 498.436C220.326 392.196 200.976 378.896 200.976 378.896Z" fill="white"/>
<path d="M186.916 356.176C186.916 356.176 190.386 379.976 167.456 423.846C137.236 481.676 100.256 541.296 167.126 569.736C167.126 569.736 132.926 546.026 162.486 473.186C203.066 373.196 186.906 356.166 186.906 356.166L186.916 356.176Z" fill="white"/>
<path d="M177.896 331.026C177.896 331.026 176.346 355.026 144.796 393.176C103.216 443.456 54.6459 494.086 114.146 535.806C114.146 535.806 85.6259 505.506 129.686 440.406C190.176 351.036 177.906 331.026 177.906 331.026H177.896Z" fill="white"/>
<path d="M174.296 304.556C174.296 304.556 167.786 327.706 128.996 358.466C77.8759 399.006 19.8359 438.426 69.3559 491.606C69.3559 491.606 47.7559 456.036 104.386 401.516C182.136 326.676 174.296 304.546 174.296 304.546V304.556Z" fill="white"/>
<path d="M176.286 277.916C176.286 277.916 165.106 299.206 120.766 321.226C62.3259 350.246 -2.63414 376.746 34.7459 439.056C34.7459 439.056 21.0159 399.766 87.7459 358.226C179.356 301.186 176.286 277.916 176.286 277.916Z" fill="white"/>
<path d="M183.766 252.266C183.766 252.266 168.406 270.776 120.456 283.086C57.2659 299.326 -11.7941 311.736 11.8159 380.456C11.8159 380.456 6.55586 339.176 80.4559 312.406C181.916 275.656 183.756 252.256 183.756 252.256L183.766 252.266Z" fill="white"/>
<path d="M196.416 228.736C196.416 228.736 177.546 243.646 128.086 245.726C62.8959 248.466 -7.22414 246.256 1.57586 318.386C1.57586 318.386 5.00586 276.906 82.8659 266.096C189.756 251.246 196.416 228.736 196.416 228.736Z" fill="white"/>
<path d="M213.676 208.356C213.676 208.356 192.116 219.016 143.306 210.766C78.9659 199.896 10.8359 183.146 4.45586 255.526C4.45586 255.526 16.4359 215.666 94.8459 221.276C202.486 228.976 213.686 208.346 213.686 208.346L213.676 208.356Z" fill="white"/>
<path d="M234.806 191.996C234.806 191.996 211.496 197.936 165.466 179.726C104.796 155.716 41.6359 125.176 20.3359 194.646C20.3359 194.646 40.3459 158.156 115.866 179.936C219.546 209.846 234.796 191.996 234.796 191.996H234.806Z" fill="white"/>
<path d="M258.866 180.396C258.866 180.396 234.836 181.366 193.596 153.976C139.246 117.876 83.8159 74.8658 48.5359 138.396C48.5359 138.396 75.6959 106.856 145.036 143.876C240.236 194.686 258.856 180.396 258.856 180.396H258.866Z" fill="white"/>
<path d="M284.816 174.056C284.816 174.056 261.106 170.006 226.466 134.636C180.806 88.0258 135.526 34.4358 87.8159 89.2358C87.8159 89.2358 120.936 64.0358 181.076 114.656C263.626 184.156 284.816 174.046 284.816 174.046V174.056Z" fill="white"/>
<path d="M311.526 173.236C311.526 173.236 289.176 164.346 262.646 122.546C227.676 67.4658 194.526 5.62584 136.466 49.3158C136.466 49.3158 174.106 31.5558 222.396 93.5758C288.696 178.716 311.526 173.236 311.526 173.236Z" fill="white"/>
<path d="M337.806 177.996C337.806 177.996 317.796 164.656 300.536 118.256C277.786 57.1058 258.216 -10.2742 192.336 20.3958C192.336 20.3958 232.846 10.8458 267.186 81.5558C314.336 178.626 337.806 178.006 337.806 178.006V177.996Z" fill="white"/>
<path d="M362.536 188.116C362.536 188.116 345.736 170.906 338.496 121.936C328.956 57.3958 323.826 -12.5842 253.006 3.71583C253.006 3.71583 294.616 2.79582 313.506 79.0958C339.446 183.846 362.526 188.116 362.526 188.116H362.536Z" fill="white"/>
<path d="M384.616 203.156C384.616 203.156 371.766 182.826 374.866 133.416C378.946 68.3058 388.476 -1.20417 315.826 0.0158311C315.826 0.0158311 356.716 7.76584 359.336 86.3258C362.926 194.176 384.616 203.156 384.616 203.156Z" fill="white"/>
<path d="M403.086 222.456C403.086 222.456 394.746 199.896 408.046 152.216C425.576 89.3758 449.356 23.3658 378.036 9.44583C378.036 9.44583 416.416 25.5258 402.646 102.916C383.736 209.156 403.086 222.456 403.086 222.456Z" fill="white"/>
<path d="M417.136 245.176C417.136 245.176 413.666 221.376 436.596 177.506C466.816 119.676 503.796 60.0558 436.926 31.6158C436.926 31.6158 471.126 55.3258 441.566 128.166C400.986 228.156 417.146 245.186 417.146 245.186L417.136 245.176Z" fill="white"/>
<path d="M426.156 270.326C426.156 270.326 427.706 246.326 459.256 208.176C500.836 157.896 549.406 107.266 489.906 65.5458C489.906 65.5458 518.426 95.8458 474.366 160.946C413.876 250.316 426.146 270.326 426.146 270.326H426.156Z" fill="white"/>
<path d="M429.756 296.796C429.756 296.796 436.266 273.646 475.056 242.886C526.176 202.346 584.216 162.926 534.696 109.746C534.696 109.746 556.296 145.316 499.666 199.836C421.916 274.676 429.756 296.806 429.756 296.806V296.796Z" fill="white"/>
<path d="M427.776 323.436C427.776 323.436 438.956 302.146 483.296 280.126C541.736 251.106 606.696 224.606 569.316 162.296C569.316 162.296 583.046 201.586 516.316 243.126C424.706 300.166 427.776 323.436 427.776 323.436Z" fill="white"/>
<path d="M420.296 349.086C420.296 349.086 435.656 330.576 483.606 318.266C546.796 302.026 615.856 289.616 592.246 220.896C592.246 220.896 597.506 262.176 523.606 288.946C422.146 325.696 420.306 349.096 420.306 349.096L420.296 349.086Z" fill="white"/>
<path d="M407.646 372.616C407.646 372.616 426.516 357.706 475.976 355.626C541.166 352.886 611.286 355.096 602.486 282.966C602.486 282.966 599.056 324.446 521.196 335.256C414.306 350.106 407.646 372.616 407.646 372.616Z" fill="white"/>
<path d="M390.376 393.006C390.376 393.006 411.936 382.346 460.746 390.596C525.076 401.466 593.216 418.216 599.596 345.826C599.596 345.826 587.616 385.686 509.206 380.076C401.566 372.376 390.366 393.006 390.366 393.006H390.376Z" fill="white"/>
<path d="M369.256 409.356C369.256 409.356 392.566 403.416 438.596 421.626C499.266 445.636 562.426 476.176 583.726 406.706C583.726 406.706 563.716 443.196 488.196 421.416C384.516 391.506 369.266 409.356 369.266 409.356H369.256Z" fill="white"/>
<path d="M345.186 420.956C345.186 420.956 369.216 419.986 410.456 447.376C464.806 483.476 520.236 526.486 555.516 462.956C555.516 462.956 528.356 494.496 459.016 457.476C363.816 406.666 345.196 420.956 345.196 420.956H345.186Z" fill="white"/>
<path d="M319.236 427.306C319.236 427.306 342.946 431.356 377.586 466.726C423.246 513.336 468.526 566.926 516.236 512.126C516.236 512.126 483.116 537.326 422.976 486.706C340.426 417.206 319.236 427.316 319.236 427.316V427.306Z" fill="white"/>
<path d="M292.536 428.116C292.536 428.116 314.886 437.006 341.416 478.806C376.386 533.886 409.536 595.726 467.596 552.036C467.596 552.036 429.956 569.796 381.666 507.776C315.366 422.636 292.536 428.116 292.536 428.116Z" fill="white"/>
<path d="M266.246 423.356C266.246 423.356 286.256 436.696 303.516 483.096C326.266 544.246 345.836 611.626 411.716 580.956C411.716 580.956 371.206 590.506 336.866 519.796C289.716 422.726 266.246 423.346 266.246 423.346V423.356Z" fill="white"/>
</g>
</svg>
