<svg width="100" height="50" viewBox="0 0 100 50" fill="none" xmlns="http://www.w3.org/2000/svg">
<g clip-path="url(#clip0_4826_2445)">
<path d="M57.5013 12.0064L55.676 18.6949C55.6279 18.8769 55.5317 19.018 55.3947 19.1145C55.254 19.2111 55.0837 19.2631 54.88 19.2631H52.9733C52.7771 19.2631 52.6068 19.1999 52.4587 19.0737C52.3106 18.9474 52.2403 18.7951 52.2477 18.6095L52.3217 14.7286C52.3291 14.5243 52.3365 14.3386 52.3477 14.1715C52.3588 14.0044 52.3662 13.8224 52.3736 13.6256H52.1847C52.1551 13.8001 52.1255 13.9784 52.0885 14.1604C52.0552 14.3423 52.0144 14.5206 51.9737 14.6951L50.9371 18.6912C50.8889 18.8731 50.7927 19.0143 50.6483 19.1108C50.5039 19.2074 50.3336 19.2594 50.1411 19.2594H48.1788C47.9826 19.2594 47.8123 19.1962 47.6642 19.07C47.5161 18.9437 47.4458 18.7914 47.4532 18.6057L47.4754 12.0027H49.7079L49.4265 16.4926C49.4191 16.6672 49.408 16.8566 49.3895 17.0571C49.371 17.2576 49.3562 17.473 49.3414 17.7033H49.5191C49.5598 17.4805 49.6079 17.2539 49.6598 17.0237C49.7116 16.7971 49.7634 16.5855 49.8115 16.3998L50.8186 12.634C50.9297 12.2144 51.1999 12.0027 51.6257 12.0027H53.2103C53.4139 12.0027 53.5805 12.0695 53.7138 12.2069C53.8471 12.3443 53.9137 12.5152 53.9137 12.7157V16.5C53.9137 16.6894 53.9137 16.89 53.91 17.098C53.91 17.3096 53.9026 17.5065 53.8952 17.6959H54.084C54.1063 17.499 54.1359 17.2836 54.1803 17.0422C54.221 16.8046 54.2655 16.5966 54.3062 16.4221L55.2725 11.9952H57.505L57.5013 12.0064Z" fill="#19398A"/>
<path d="M61.7367 11.8574C62.5327 11.8574 63.1769 11.9688 63.6656 12.1954C64.1543 12.4182 64.4875 12.8119 64.6652 13.3689C64.8429 13.926 64.8652 14.7096 64.7319 15.7197C64.6356 16.4625 64.4912 17.0753 64.3061 17.5618C64.121 18.0483 63.8803 18.4196 63.5879 18.687C63.2954 18.9544 62.9362 19.1401 62.5142 19.2515C62.0921 19.3592 61.596 19.4149 61.0295 19.4149C60.1965 19.4149 59.5412 19.2998 59.0636 19.0733C58.586 18.8467 58.2676 18.4494 58.1158 17.8886C57.9603 17.3278 57.9529 16.5479 58.0825 15.5526C58.1862 14.8173 58.3305 14.2082 58.512 13.7292C58.6934 13.2501 58.9266 12.8713 59.2154 12.6002C59.5005 12.3254 59.8522 12.136 60.2632 12.0283C60.6741 11.9206 61.1665 11.8648 61.7293 11.8648L61.7367 11.8574ZM61.7145 13.5509C61.4627 13.5509 61.2628 13.6066 61.111 13.718C60.9592 13.8294 60.8407 14.0411 60.7482 14.3494C60.6556 14.6576 60.5631 15.1144 60.4668 15.716C60.3816 16.2694 60.3446 16.689 60.352 16.9787C60.3594 17.2647 60.4224 17.4615 60.5408 17.5618C60.6593 17.662 60.8407 17.714 61.0851 17.714C61.3516 17.714 61.5553 17.6583 61.7034 17.5469C61.8515 17.4355 61.9699 17.2238 62.0662 16.9119C62.1625 16.5999 62.255 16.1468 62.3439 15.5489C62.429 14.9956 62.466 14.5759 62.4586 14.2937C62.4512 14.0114 62.3883 13.8146 62.2698 13.7106C62.1514 13.6066 61.9662 13.5546 61.7145 13.5546V13.5509Z" fill="#19398A"/>
<path d="M74.5022 12.0059C74.7613 12.0059 74.9576 12.0801 75.0908 12.225C75.2241 12.3735 75.276 12.5741 75.2463 12.834L74.5947 19.2588H72.551L73.1175 13.7068H72.9694L71.755 17.4502C71.6847 17.6805 71.5773 17.8476 71.4292 17.9516C71.2811 18.0556 71.0886 18.1039 70.8406 18.1039H69.6891C69.4522 18.1039 69.2597 18.0407 69.119 17.9107C68.9746 17.7808 68.8968 17.5988 68.882 17.3685L68.6821 13.7105H68.5155L67.5603 19.2626H65.5166L66.6791 12.7523C66.7273 12.4924 66.8124 12.303 66.9346 12.1841C67.0568 12.0653 67.2456 12.0059 67.5048 12.0059H69.4337C69.6706 12.0059 69.8594 12.069 70.0001 12.199C70.1408 12.329 70.2149 12.5146 70.2186 12.7523L70.3444 15.6342C70.3593 15.8088 70.363 15.987 70.3555 16.1653C70.3481 16.3435 70.337 16.5292 70.3259 16.7186H70.4296C70.4703 16.5144 70.5148 16.3324 70.5555 16.1653C70.5962 16.0019 70.6443 15.831 70.6925 15.6565L71.5736 12.6706C71.6366 12.4329 71.7439 12.2621 71.892 12.1618C72.0438 12.0616 72.2363 12.0096 72.4733 12.0096H74.4985L74.5022 12.0059Z" fill="#19398A"/>
<path d="M78.6863 11.9618C79.112 11.9618 79.5452 11.9618 79.9821 11.973C80.419 11.9804 80.841 11.9915 81.2446 12.0101C81.6481 12.0287 82.0147 12.0621 82.3331 12.1104L82.0813 13.7073H79.5637C79.3897 13.7073 79.2601 13.737 79.1824 13.7964C79.1009 13.8558 79.0528 13.9672 79.0306 14.1269L78.6122 17.1462C78.59 17.2799 78.6122 17.3802 78.6752 17.4508C78.7381 17.5213 78.8455 17.5547 79.001 17.5547H81.5186L81.4778 19.1739C81.1409 19.2222 80.7707 19.2557 80.3671 19.2705C79.9636 19.2854 79.5489 19.2928 79.1306 19.2965C78.7122 19.2965 78.3123 19.3002 77.9347 19.3002C77.3423 19.3002 76.9055 19.1145 76.6241 18.7432C76.3427 18.3718 76.239 17.9001 76.3094 17.3245L76.8351 13.5699C76.9055 13.0797 77.098 12.6897 77.4164 12.3963C77.7348 12.1067 78.1605 11.9581 78.69 11.9581L78.6863 11.9618ZM76.861 14.7917H81.5482L81.3594 16.3069H76.6204L76.861 14.7917Z" fill="#19398A"/>
<path d="M90.3448 12.0066L89.434 18.5169C89.4007 18.7768 89.3155 18.9662 89.186 19.0851C89.0564 19.2039 88.8639 19.2633 88.6047 19.2633H87.8494C87.6125 19.2633 87.4422 19.2002 87.3422 19.0739C87.2422 18.9477 87.1423 18.7768 87.0423 18.5577L85.8057 16.0658C85.7206 15.8987 85.6502 15.7093 85.5947 15.505C85.5392 15.297 85.4873 15.0854 85.4392 14.87H85.3652C85.3726 15.0928 85.3726 15.3156 85.3652 15.5384C85.3577 15.7575 85.3355 15.9841 85.3022 16.2181L84.8505 19.2671H82.7661L83.6769 12.7568C83.7102 12.4969 83.7954 12.3075 83.9249 12.1886C84.0545 12.0698 84.247 12.0104 84.5062 12.0104H85.2615C85.4984 12.0104 85.665 12.0735 85.765 12.2035C85.8613 12.3335 85.9612 12.5043 86.0575 12.7123L87.2719 15.0779C87.357 15.2525 87.4348 15.4419 87.5088 15.6424C87.5828 15.843 87.6495 16.0732 87.7124 16.3295H87.7976C87.7754 16.0918 87.768 15.8764 87.7717 15.687C87.7717 15.4976 87.7902 15.3008 87.8198 15.0965L88.2604 12.0029H90.3448V12.0066Z" fill="#19398A"/>
<path d="M92.8468 11.8504C93.1245 11.8504 93.317 11.9061 93.4281 12.0212C93.5391 12.1364 93.5762 12.3258 93.5428 12.5969L93.4503 13.2245C93.417 13.4547 93.354 13.6961 93.2652 13.9524C93.1763 14.2086 93.0652 14.45 92.9394 14.684C92.8135 14.918 92.6728 15.1185 92.5173 15.2893L91.6361 14.9737C91.7398 14.7508 91.825 14.528 91.8916 14.3015C91.9582 14.0749 92.0212 13.8521 92.0841 13.6293C91.8546 13.6367 91.7028 13.5884 91.6213 13.4807C91.5399 13.3768 91.514 13.2171 91.5436 12.9979L91.6176 12.5449C91.6584 12.2775 91.7472 12.0918 91.8879 11.9952C92.0249 11.8987 92.2248 11.8467 92.4803 11.8467H92.8542L92.8468 11.8504Z" fill="#19398A"/>
<path d="M97.4086 11.8584C97.8121 11.8584 98.2453 11.8881 98.7044 11.9438C99.1635 11.9995 99.593 12.0998 100 12.2372L99.8003 13.6893C99.5893 13.6819 99.3449 13.6781 99.0598 13.6781C98.7748 13.6781 98.4823 13.6781 98.175 13.6744C97.8677 13.6744 97.5641 13.6707 97.2642 13.6707C97.1457 13.6707 97.0458 13.6744 96.9606 13.6856C96.8755 13.6967 96.8051 13.7116 96.7496 13.7339C96.694 13.7561 96.6496 13.7858 96.62 13.823C96.5904 13.8601 96.5645 13.9084 96.5534 13.9641C96.546 14.0124 96.5533 14.0607 96.5682 14.1127C96.5867 14.1609 96.6311 14.2092 96.6977 14.2612C96.7681 14.3095 96.8718 14.3689 97.0124 14.4395L98.2268 15.0188C98.6267 15.2082 98.9265 15.4088 99.1302 15.6167C99.3338 15.8284 99.4634 16.0661 99.5226 16.3372C99.5819 16.6083 99.5893 16.9203 99.5485 17.2768C99.4856 17.8301 99.3486 18.2646 99.1413 18.5766C98.9303 18.8886 98.6193 19.1077 98.2046 19.2302C97.7899 19.3528 97.2309 19.4159 96.5311 19.4159C96.2313 19.4159 95.824 19.3899 95.3094 19.3379C94.7947 19.2859 94.2616 19.1894 93.71 19.0483L93.921 17.4588C94.3245 17.4662 94.7022 17.4736 95.0465 17.4848C95.3908 17.4959 95.6833 17.5033 95.9202 17.507C96.1572 17.507 96.3238 17.5108 96.4127 17.5108C96.6311 17.5108 96.7977 17.4996 96.9199 17.481C97.0421 17.4588 97.1346 17.4253 97.1939 17.3808C97.2531 17.3362 97.2901 17.2768 97.3049 17.2062C97.3197 17.1431 97.316 17.0911 97.3012 17.0502C97.2827 17.0094 97.2457 16.9685 97.1902 16.9277C97.1346 16.8906 97.0569 16.846 96.9606 16.7977L95.6389 16.1441C95.2316 15.9398 94.928 15.7244 94.7281 15.4979C94.5245 15.2714 94.3949 15.0225 94.3394 14.7551C94.2838 14.4877 94.2727 14.2092 94.3097 13.9121C94.3579 13.511 94.4541 13.1805 94.5985 12.9131C94.7429 12.6457 94.9391 12.4377 95.1909 12.2892C95.4426 12.1369 95.7537 12.0292 96.1239 11.9624C96.4941 11.8955 96.9236 11.8621 97.4123 11.8621L97.4086 11.8584Z" fill="#19398A"/>
<path d="M50.1004 21.9036L49.0822 29.1603H46.8164L47.8345 21.9036H50.1004ZM50.752 21.7996C51.4925 21.7996 52.0774 21.8739 52.5032 22.0261C52.929 22.1784 53.2177 22.4384 53.3732 22.8097C53.5287 23.1811 53.5584 23.6973 53.4695 24.3547C53.3843 24.9786 53.24 25.4614 53.0326 25.8067C52.8253 26.1521 52.5291 26.3898 52.1404 26.5235C51.7516 26.6572 51.2407 26.724 50.6039 26.724C50.2485 26.724 49.8967 26.7055 49.5487 26.6646C49.2044 26.6275 48.8823 26.5755 48.5824 26.5124C48.2862 26.4492 48.0308 26.3824 47.8234 26.3118C47.6124 26.2413 47.4717 26.1781 47.394 26.1224L47.4569 25.1123H50.404C50.5854 25.1123 50.7298 25.0937 50.8334 25.0603C50.9371 25.0269 51.0186 24.9414 51.0815 24.8077C51.1407 24.674 51.1889 24.4661 51.2222 24.1875C51.2518 23.9907 51.2555 23.8384 51.237 23.7233C51.2185 23.6119 51.1703 23.5302 51.0852 23.4819C51 23.4336 50.8705 23.4077 50.6964 23.4077C49.9782 23.4077 49.3673 23.4114 48.8675 23.4225C48.3677 23.4336 48.0308 23.4485 47.8568 23.4708L47.8345 21.9036C48.1492 21.8702 48.4417 21.8442 48.7157 21.8293C48.9897 21.8144 49.2822 21.807 49.6006 21.8033C49.919 21.8033 50.3003 21.7996 50.7483 21.7996H50.752Z" fill="#19398A"/>
<path d="M57.2679 21.9036L56.2497 29.1603H54.0283L55.0465 21.9036H57.2679ZM57.9713 21.7996C58.6414 21.7996 59.2005 21.8701 59.6485 22.0113C60.0964 22.1524 60.4185 22.3864 60.6148 22.7206C60.811 23.0548 60.8702 23.5116 60.7925 24.0947C60.7592 24.3695 60.6851 24.622 60.5777 24.856C60.4704 25.09 60.3038 25.2868 60.0779 25.4391C59.8558 25.5951 59.5485 25.6916 59.1561 25.7325L59.1449 25.8067C59.2634 25.8216 59.393 25.8662 59.5263 25.9367C59.6633 26.011 59.7855 26.1261 59.8928 26.2895C60.0002 26.4492 60.0705 26.6795 60.0964 26.9729L60.3704 29.1603H58.0231L57.8343 26.9617C57.8269 26.7575 57.7973 26.6312 57.7418 26.5829C57.6862 26.5346 57.5789 26.5086 57.416 26.5086C56.8791 26.5012 56.4422 26.4975 56.1053 26.4975C55.7684 26.4975 55.487 26.4975 55.2612 26.4864C55.0354 26.4789 54.8132 26.4678 54.5948 26.4566L54.7614 24.9006H57.6344C57.8454 24.9006 58.0083 24.8783 58.1231 24.8374C58.2379 24.7966 58.3267 24.7149 58.386 24.5886C58.4452 24.4661 58.4933 24.2915 58.5267 24.0687C58.5563 23.9016 58.5563 23.7679 58.5267 23.6676C58.497 23.571 58.4378 23.5005 58.3489 23.4634C58.2564 23.4262 58.1268 23.4039 57.9491 23.4039C57.2012 23.4039 56.5755 23.4076 56.0794 23.4188C55.5796 23.4299 55.2427 23.4448 55.0687 23.4671L55.0465 21.8999C55.3612 21.8664 55.6574 21.8404 55.9313 21.8256C56.209 21.8107 56.5052 21.8033 56.8273 21.7996C57.1494 21.7996 57.5307 21.7959 57.9713 21.7959V21.7996Z" fill="#19398A"/>
<path d="M64.1658 21.859C64.5915 21.859 65.0247 21.859 65.4616 21.8701C65.8985 21.8776 66.3205 21.8887 66.7241 21.9073C67.1276 21.9258 67.4942 21.9593 67.8126 22.0075L67.5608 23.6045H65.0432C64.8692 23.6045 64.7396 23.6342 64.6619 23.6936C64.5804 23.753 64.5323 23.8644 64.5101 24.0241L64.0917 27.0434C64.0695 27.1771 64.0917 27.2774 64.1547 27.3479C64.2176 27.4185 64.325 27.4519 64.4805 27.4519H66.9981L66.9573 29.0711C66.6204 29.1194 66.2502 29.1528 65.8466 29.164C65.4431 29.1788 65.0284 29.1863 64.6101 29.19C64.1917 29.19 63.7918 29.1937 63.4142 29.1937C62.8218 29.1937 62.385 29.008 62.1036 28.6366C61.8222 28.2652 61.7185 27.7936 61.7889 27.218L62.3146 23.4633C62.385 22.9731 62.5775 22.5832 62.8959 22.2898C63.2143 22.0001 63.64 21.8516 64.1695 21.8516L64.1658 21.859ZM62.3405 24.6889H67.0277L66.8389 26.2041H62.0999L62.3405 24.6889Z" fill="#19398A"/>
<path d="M77.113 21.9031C77.3722 21.9031 77.5684 21.9774 77.7017 22.1222C77.835 22.2708 77.8868 22.4713 77.8572 22.7313L77.2056 29.1561H75.1619L75.7283 23.604H75.5802L74.3659 27.3475C74.2955 27.5778 74.1882 27.7449 74.0401 27.8452C73.892 27.9454 73.6995 27.9974 73.4514 27.9974H72.3C72.063 27.9974 71.8705 27.9343 71.7298 27.8043C71.5854 27.6743 71.5077 27.4923 71.4929 27.2621L71.2929 23.604H71.1263L70.1711 29.1561H68.1274L69.29 22.6459C69.3381 22.3859 69.4233 22.1965 69.5454 22.0777C69.6676 21.9588 69.8564 21.8994 70.1156 21.8994H72.0445C72.2815 21.8994 72.4703 21.9625 72.611 22.0925C72.7517 22.2225 72.8257 22.4082 72.8294 22.6459L72.9553 25.5278C72.9701 25.7023 72.9738 25.8806 72.9664 26.0588C72.959 26.2371 72.9479 26.4228 72.9368 26.6122H73.0404C73.0812 26.4079 73.1256 26.226 73.1663 26.0588C73.207 25.8954 73.2552 25.7246 73.3033 25.55L74.1845 22.5642C74.2474 22.3265 74.3548 22.1557 74.5029 22.0554C74.6547 21.9551 74.8472 21.9031 75.0841 21.9031H77.1093H77.113Z" fill="#19398A"/>
<path d="M81.9886 21.9033L80.9704 29.16H78.7046L79.7227 21.9033H81.9886Z" fill="#19398A"/>
<path d="M85.1985 21.859C85.6243 21.859 86.0574 21.859 86.4943 21.8701C86.9312 21.8776 87.3532 21.8887 87.7568 21.9073C88.1604 21.9258 88.5269 21.9593 88.8453 22.0075L88.5935 23.6045H86.0759C85.9019 23.6045 85.7724 23.6342 85.6946 23.6936C85.6132 23.753 85.565 23.8644 85.5428 24.0241L85.1244 27.0434C85.1022 27.1771 85.1244 27.2774 85.1874 27.3479C85.2503 27.4185 85.3577 27.4519 85.5132 27.4519H88.0308L87.99 29.0711C87.6531 29.1194 87.2829 29.1528 86.8793 29.164C86.4758 29.1788 86.0611 29.1863 85.6428 29.19C85.2244 29.19 84.8246 29.1937 84.4469 29.1937C83.8545 29.1937 83.4177 29.008 83.1363 28.6366C82.8549 28.2652 82.7512 27.7936 82.8216 27.218L83.3473 23.4633C83.4177 22.9731 83.6102 22.5832 83.9286 22.2898C84.247 22.0001 84.6728 21.8516 85.2022 21.8516L85.1985 21.859ZM83.3732 24.6889H88.0604L87.8716 26.2041H83.1326L83.3732 24.6889Z" fill="#19398A"/>
<path d="M92.5144 21.9036L91.4963 29.1603H89.2749L90.293 21.9036H92.5144ZM93.2179 21.7996C93.888 21.7996 94.4471 21.8701 94.895 22.0113C95.343 22.1524 95.6651 22.3864 95.8614 22.7206C96.0576 23.0548 96.1168 23.5116 96.0391 24.0947C96.0057 24.3695 95.9317 24.622 95.8243 24.856C95.717 25.09 95.5504 25.2868 95.3245 25.4391C95.1024 25.5951 94.7951 25.6916 94.4026 25.7325L94.3915 25.8067C94.51 25.8216 94.6396 25.8662 94.7729 25.9367C94.9098 26.011 95.032 26.1261 95.1394 26.2895C95.2468 26.4492 95.3171 26.6795 95.343 26.9729L95.617 29.1603H93.2697L93.0809 26.9617C93.0735 26.7575 93.0439 26.6312 92.9883 26.5829C92.9328 26.5346 92.8254 26.5086 92.6625 26.5086C92.1257 26.5012 91.6888 26.4975 91.3519 26.4975C91.015 26.4975 90.7336 26.4975 90.5078 26.4864C90.2819 26.4789 90.0598 26.4678 89.8414 26.4566L90.008 24.9006H92.881C93.092 24.9006 93.2549 24.8783 93.3697 24.8374C93.4845 24.7966 93.5733 24.7149 93.6325 24.5886C93.6918 24.4661 93.7399 24.2915 93.7732 24.0687C93.8029 23.9016 93.8029 23.7679 93.7732 23.6676C93.7436 23.571 93.6844 23.5005 93.5955 23.4634C93.503 23.4262 93.3734 23.4039 93.1957 23.4039C92.4478 23.4039 91.8221 23.4076 91.326 23.4188C90.8262 23.4299 90.4893 23.4448 90.3153 23.4671L90.293 21.8999C90.6077 21.8664 90.9039 21.8404 91.1779 21.8256C91.4556 21.8107 91.7518 21.8033 92.0739 21.7996C92.396 21.7996 92.7773 21.7959 93.2179 21.7959V21.7996Z" fill="#19398A"/>
<path d="M50.0891 31.8008L49.3449 36.8292C49.3301 36.9852 49.3486 37.0929 49.4041 37.156C49.456 37.2191 49.5633 37.2489 49.7225 37.2489H52.1142L52.0735 38.9646C51.5922 39.0277 51.0443 39.0649 50.426 39.0797C49.8114 39.0946 49.2042 39.102 48.6007 39.102C48.2527 39.102 47.9491 39.0277 47.7011 38.8829C47.4493 38.7344 47.2605 38.5338 47.1383 38.2776C47.0161 38.0213 46.9791 37.7316 47.0272 37.4085L47.8047 31.8045H50.0891V31.8008Z" fill="#19398A"/>
<path d="M55.7283 31.7565C56.154 31.7565 56.5872 31.7565 57.0241 31.7676C57.461 31.775 57.883 31.7862 58.2866 31.8047C58.6901 31.8233 59.0567 31.8567 59.3751 31.905L59.1233 33.5019H56.6057C56.4317 33.5019 56.3021 33.5316 56.2244 33.5911C56.1429 33.6505 56.0948 33.7619 56.0726 33.9216L55.6542 36.9409C55.632 37.0746 55.6542 37.1748 55.7172 37.2454C55.7801 37.316 55.8875 37.3494 56.043 37.3494H58.5606L58.5198 38.9686C58.1829 39.0169 57.8127 39.0503 57.4091 39.0614C57.0056 39.0763 56.5909 39.0837 56.1726 39.0874C55.7542 39.0874 55.3543 39.0911 54.9767 39.0911C54.3843 39.0911 53.9474 38.9055 53.6661 38.5341C53.3847 38.1627 53.281 37.6911 53.3514 37.1154L53.8771 33.3608C53.9475 32.8706 54.14 32.4806 54.4584 32.1872C54.7768 31.8976 55.2025 31.749 55.732 31.749L55.7283 31.7565ZM53.903 34.5863H58.5902L58.4014 36.1016H53.6624L53.903 34.5863Z" fill="#19398A"/>
<path d="M64.8174 31.8008C64.9988 31.8008 65.158 31.8602 65.2987 31.979C65.4394 32.0979 65.5171 32.2501 65.5393 32.4321L66.4723 39.0575H64.1991L63.8214 34.2927C63.8066 34.1516 63.7992 34.0142 63.7992 33.8842C63.7992 33.7542 63.7992 33.6168 63.8103 33.4831H63.5178C63.4956 33.5945 63.4697 33.7208 63.4401 33.8582C63.4105 33.9956 63.366 34.133 63.3105 34.2741L61.5371 39.0575H59.1787L61.9666 32.3467C62.0369 32.1647 62.1406 32.0273 62.2813 31.9382C62.422 31.8453 62.5812 31.8008 62.7626 31.8008H64.8174ZM65.1617 35.8599L64.9729 37.52H61.1669L61.3668 35.8599H65.1617Z" fill="#19398A"/>
<path d="M71.6106 31.6523C71.8956 31.6523 72.177 31.6634 72.4547 31.682C72.7324 31.7043 73.0026 31.7377 73.2655 31.7823C73.5321 31.8268 73.7875 31.89 74.0319 31.968L73.7801 33.5983C73.521 33.5909 73.2729 33.5872 73.0323 33.5872C72.7916 33.5872 72.5435 33.5872 72.2918 33.5834C72.04 33.5834 71.7624 33.5797 71.4514 33.5797C71.2218 33.5797 71.0256 33.6094 70.8701 33.6726C70.7146 33.7357 70.5813 33.8397 70.4776 33.9882C70.374 34.1368 70.2851 34.3336 70.2111 34.5824C70.137 34.8313 70.0741 35.1432 70.0186 35.5146C69.9482 35.99 69.9186 36.3576 69.926 36.6064C69.9334 36.859 69.9889 37.0298 70.1 37.1227C70.2074 37.2155 70.3777 37.2601 70.6072 37.2601C70.8257 37.2601 70.9997 37.2341 71.133 37.1747C71.2662 37.1189 71.3773 37.0558 71.4699 36.9853C71.5624 36.9147 71.6402 36.8627 71.7105 36.8293L72.0882 37.7317C72.003 37.8283 71.8919 37.9583 71.7475 38.1217C71.6032 38.2814 71.4291 38.4485 71.2181 38.6156C71.0071 38.7827 70.7664 38.9238 70.4888 39.0353C70.2111 39.1467 69.9001 39.2024 69.5521 39.2024C69.0782 39.2024 68.6746 39.0835 68.3414 38.8458C68.0082 38.6082 67.7786 38.2071 67.6491 37.6426C67.5195 37.0781 67.5232 36.3131 67.6528 35.3438C67.7564 34.5936 67.9082 33.9771 68.1045 33.498C68.3007 33.0189 68.5561 32.6439 68.8708 32.3728C69.1855 32.1016 69.5669 31.916 70.0186 31.812C70.4702 31.708 71.0034 31.656 71.618 31.656L71.6106 31.6523ZM74.0023 34.8795L73.4136 39.0538H71.7475L71.6328 37.9285L71.4662 37.5386L71.8327 34.8795H74.0023Z" fill="#19398A"/>
<path d="M82.1998 31.8008L81.5815 36.1013C81.4779 36.8738 81.3002 37.4828 81.0521 37.9359C80.804 38.389 80.4486 38.7121 79.9821 38.9089C79.5156 39.1057 78.901 39.2023 78.131 39.2023C77.3609 39.2023 76.7981 39.0983 76.3316 38.8866C75.8651 38.6749 75.543 38.337 75.3579 37.8728C75.1728 37.4048 75.1284 36.7883 75.2283 36.0159L75.8355 31.8008H78.1013L77.4942 36.1013C77.4386 36.4652 77.4164 36.7512 77.4312 36.9592C77.446 37.1671 77.5127 37.3083 77.6311 37.39C77.7496 37.4717 77.9347 37.5125 78.1865 37.5125C78.4531 37.5125 78.6567 37.468 78.8011 37.3825C78.9455 37.2934 79.0528 37.1412 79.1269 36.9258C79.2009 36.7104 79.2676 36.4058 79.3305 36.0233L79.9266 31.8082H82.1998V31.8008Z" fill="#19398A"/>
<path d="M85.3318 31.7565C85.7576 31.7565 86.1907 31.7565 86.6276 31.7676C87.0645 31.775 87.4865 31.7862 87.8901 31.8047C88.2937 31.8233 88.6602 31.8567 88.9786 31.905L88.7268 33.5019H86.2092C86.0352 33.5019 85.9057 33.5316 85.8279 33.5911C85.7465 33.6505 85.6983 33.7619 85.6761 33.9216L85.2577 36.9409C85.2355 37.0746 85.2577 37.1748 85.3207 37.2454C85.3836 37.316 85.491 37.3494 85.6465 37.3494H88.1641L88.1234 38.9686C87.7864 39.0169 87.4162 39.0503 87.0127 39.0614C86.6091 39.0763 86.1944 39.0837 85.7761 39.0874C85.3577 39.0874 84.9579 39.0911 84.5802 39.0911C83.9878 39.0911 83.551 38.9055 83.2696 38.5341C82.9882 38.1627 82.8845 37.6911 82.9549 37.1154L83.4806 33.3608C83.551 32.8706 83.7435 32.4806 84.0619 32.1872C84.3803 31.8976 84.8061 31.749 85.3355 31.749L85.3318 31.7565ZM83.5065 34.5863H88.1937L88.0049 36.1016H83.2659L83.5065 34.5863Z" fill="#19398A"/>
<path d="M43.1954 26.3866C43.1954 26.3866 43.4508 25.317 43.4619 25.0571C43.473 24.7971 42.8992 24.1769 42.8881 24.1658L42.4771 23.7981C42.4771 23.7981 42.2809 23.5344 41.9995 23.2448C41.8329 23.0702 41.6256 23.0145 41.4812 22.9922C41.3812 22.9774 41.2887 22.9217 41.2442 22.8288C41.1813 22.7026 41.0702 22.5243 40.8851 22.3609C40.663 22.1641 40.3298 22.0786 40.1409 22.0415C40.0558 22.0266 39.9817 21.9747 39.9373 21.8967C39.8485 21.7444 39.6522 21.4993 39.282 21.425C38.7415 21.3173 38.2676 21.5921 38.2565 21.5996C38.249 21.5736 37.6048 19.453 37.4642 19.2636C37.3235 19.0742 37.1717 19.0779 36.9866 19.0408C36.9051 19.0222 36.8125 19.0408 36.7348 19.0668C36.62 19.1039 36.4941 19.0668 36.4127 18.9739C36.3609 18.9145 36.3053 18.8514 36.2609 18.792C36.1461 18.6434 35.8759 18.636 35.6722 18.5803C35.4686 18.5246 35.1465 18.6657 35.1465 18.6657C35.1465 18.6657 35.1354 18.6285 34.9429 18.4094C34.7503 18.1903 34.4097 18.0343 34.0284 17.9601C33.647 17.8821 33.4101 18.1606 33.4101 18.1606L33.3916 18.1012C33.3916 18.1012 33.1917 17.8115 33.0214 17.6853C32.1106 17.507 31.8662 17.8747 31.7033 18.3537L31.0073 17.8821L30.6778 17.5813L22.2513 11.1156L15.7759 5.99431C15.7759 5.99431 10.0706 1.58978 8.26386 0.156268C8.13798 0.0559967 7.8566 -0.107409 7.61595 0.0968482C7.61595 0.0968482 7.12724 0.408805 7.09392 0.475652C7.01247 0.642772 6.87918 0.854457 7.08652 1.09214C7.29385 1.32611 8.59707 3.51351 9.62261 4.83933C10.7703 6.32855 11.7774 8.35998 14.9503 9.90862C15.3168 10.0869 15.8759 10.4174 16.5275 10.8259C16.6719 10.9188 16.8014 11.0339 16.9125 11.1676C16.9606 11.227 17.0162 11.2901 16.9791 11.3087C17.0828 11.3087 16.483 11.4461 16.5867 11.4387C16.7126 11.4313 16.8385 11.4127 16.9606 11.3867C16.0795 11.6801 15.6685 12.0663 15.4242 12.2594C15.1095 12.5045 14.6652 13.693 14.2616 14.38C13.8581 15.067 13.6693 16.5897 13.6693 16.5897C13.573 16.8311 13.4804 17.4736 13.4804 17.4736L13.0399 17.5218C13.0399 17.5218 12.9399 18.1643 12.9473 18.3129C12.9547 18.4614 13.4915 18.3983 13.4915 18.3983L13.4471 18.7251C13.3879 18.9554 13.5545 19.1522 13.5545 19.1522C13.5545 19.1522 13.3731 19.5421 13.4138 19.7984C13.4545 20.0509 13.6396 20.2997 13.6396 20.2997C13.6396 20.2997 13.5286 20.5003 13.5212 20.5597C13.5138 20.6191 13.9692 21.1316 13.9358 21.2802C13.9025 21.4287 14.0543 21.5513 14.158 21.6627C14.2505 21.763 14.1358 22.3535 14.1172 22.6468C14.0913 22.6023 14.0691 22.5577 14.0432 22.5131C13.8137 22.0861 13.7581 22.2272 13.5286 21.8038L13.4767 22.1863C13.5915 22.6394 14.058 24.1026 14.058 24.1621C14.058 24.2289 13.7322 26.4237 13.7285 26.446L13.7951 34.4826L10.9999 48.944L21.8514 39.9716L20.178 47.4845L25.6759 36.7555L24.8096 33.1605C24.8096 33.1605 33.4397 31.6007 34.6208 30.8283C35.4723 30.2712 36.6756 27.523 36.8014 26.5909C36.8385 26.8843 36.8829 27.1108 36.9051 27.2111C36.9125 27.2445 36.9236 27.2779 36.9458 27.3076C37.0236 27.4228 37.2383 27.7978 37.168 28.2806C37.1013 28.7374 37.4012 29.2276 37.5345 29.4245L37.1309 29.0791C36.6496 29.3799 36.8496 29.9593 36.8496 29.9593L36.7533 30.1338C36.7533 30.1338 35.6759 31.066 33.6137 31.9684C32.3142 32.5366 29.904 32.8671 29.5893 32.9117C29.5671 32.9117 29.5412 32.9117 29.5189 32.9117L27.342 32.6852L27.3124 33.8699L28.4379 34.9877C28.4379 34.9877 28.4564 35.0063 28.4712 35.0137C28.6859 35.1734 31.0036 36.8743 31.5441 36.8743C32.1106 36.8743 36.546 34.2858 37.69 33.5913C38.5452 33.0714 39.3634 32.2061 39.7226 31.7976C39.8299 31.675 39.8225 31.4856 39.7041 31.3742C39.4856 31.1625 39.6744 30.7949 39.9706 30.8543C40.352 30.9285 40.7074 30.962 40.8185 30.8543C41.0443 30.6389 41.5182 29.7996 41.6626 29.5396C41.6885 29.4913 41.7033 29.4356 41.6996 29.3762C41.6885 29.1608 41.6663 28.6037 41.7292 28.4886C41.7885 28.3772 42.0773 28.4663 42.1994 28.5109C42.2402 28.5257 42.2809 28.5295 42.3216 28.5295L43.014 28.4812L43.4582 28.1247L43.9692 27.1702L43.1917 26.3866H43.1954ZM21.4256 11.4981C21.4256 11.4981 21.4553 11.5093 21.4738 11.5167L21.4886 11.5241C21.4664 11.5167 21.4479 11.5093 21.4256 11.4981ZM36.8459 24.8974C36.7348 25.3653 36.7311 25.8667 36.7644 26.2901C36.5571 25.8444 36.8162 24.1435 35.6056 24.1732C35.2687 24.1806 34.5726 23.9058 33.5249 24.6226C33.3953 24.6857 32.4808 25.6884 31.6515 26.4572C31.4108 26.5797 29.9891 26.732 29.9743 26.7357L28.2453 26.6466L24.6726 26.1081L23.9025 25.9187L22.7511 24.7377C22.6363 24.6449 22.7104 24.4666 22.466 24.2549L22.6437 23.9318C22.6437 23.9318 22.8214 23.4787 22.9843 23.0702C23.0843 23.1036 23.1954 23.1445 23.3027 23.2039C23.8581 23.501 24.0136 23.9058 24.0136 23.9058C24.021 23.7647 24.0136 23.6978 24.0136 23.6978C23.8729 23.2336 23.3879 22.9699 23.0732 22.8437C23.2176 22.4834 23.3509 22.0638 23.436 21.6441C23.5878 21.6998 23.7951 21.7853 24.0728 21.9152C24.6171 22.1715 24.6726 22.3795 24.6763 22.4463C24.6763 22.372 24.6689 22.1306 24.5171 21.9561C24.3283 21.7333 23.8396 21.5141 23.4878 21.3767C23.5693 20.8568 23.8581 19.9766 23.9284 19.7984C23.9395 19.7687 23.9543 19.7315 23.9655 19.6907C24.0691 19.739 24.1987 19.8058 24.3579 19.9024C24.754 20.1363 24.9984 20.3629 24.9984 20.3629C24.9873 20.2663 24.9503 20.1178 24.7392 19.9172C24.5467 19.7315 24.1839 19.5644 24.0247 19.4939C24.0728 19.3193 24.1135 19.141 24.1098 19.0928C24.1098 19.0148 24.2727 18.792 24.3801 18.5506C24.4875 18.3092 24.369 17.8635 24.369 17.8635C24.369 17.8635 24.5504 17.767 24.6689 17.6407C24.7244 17.6555 24.78 17.6704 24.8392 17.6815C25.65 17.8672 26.2091 17.4958 26.0499 17.221C26.1646 17.2656 26.2387 17.299 26.2609 17.3102L30.4371 20.0249L31.3553 19.5384C31.2961 20.0286 31.3442 20.53 31.3257 21.1131C31.2998 21.9338 32.3771 23.8464 32.6807 24.0729C32.9843 24.2958 34.0617 24.0729 34.0802 24.0729H34.7911C34.8355 24.0692 37.0976 23.8204 36.8422 24.9048L36.8459 24.8974Z" fill="#91CCEF"/>
<path d="M20.2889 11.1309C20.2889 11.1309 22.203 11.3723 23.1211 12.8652C23.9838 14.2616 24.4429 16.215 24.4429 16.215L23.7246 16.0962C23.7246 16.0962 23.2729 12.0593 20.2852 11.1309H20.2889Z" fill="white"/>
<path d="M15.8726 17.5854C15.8726 17.5854 17.4609 16.876 18.8529 16.8241C19.5897 16.7238 20.5338 16.6384 21.9777 16.7238C23.4216 16.8092 25.2172 17.2549 25.469 17.2771C25.7171 17.2994 25.8689 17.2771 25.8689 17.2771L24.9877 16.6904C24.9877 16.6904 20.0118 15.3683 15.8726 17.5891V17.5854Z" fill="white"/>
<path d="M19.7666 18.9707C19.7666 18.9707 20.8958 18.8927 21.6104 18.9781C22.3767 19.0672 23.0913 19.2418 23.7244 19.5203C24.5426 19.8805 24.9462 20.2742 24.9462 20.2742C24.9462 20.2742 24.8573 19.9994 24.5537 19.8137C24.3205 19.6688 23.5578 19.1712 21.9991 18.9001C21.5548 18.837 21.0772 18.7367 19.7666 18.9744V18.9707Z" fill="white"/>
<path d="M22.4473 21.1729C22.4473 21.1729 22.9693 21.1988 23.6135 21.4848C23.9134 21.5888 24.3651 21.8488 24.4428 21.9193C24.5909 22.053 24.6242 22.2053 24.6242 22.2053C24.6242 22.2053 23.7949 21.4885 22.4806 21.3511L22.4473 21.1729Z" fill="white"/>
<path d="M22.1512 21.1537L22.1771 21.2836C22.1771 21.2836 21.7662 21.2688 21.3515 21.2799C21.022 21.2873 20.6925 21.3208 20.5259 21.3393C20.5259 21.1722 20.5259 21.1871 20.5259 21.1871C20.5259 21.1871 21.5699 21.0942 22.1549 21.1537H22.1512Z" fill="white"/>
<path d="M22.4854 22.7549C22.4854 22.7549 23.1296 22.8366 23.4517 23.0743C23.7738 23.3119 23.9256 23.5125 23.9922 23.6573C23.9922 23.7353 24.0033 23.8096 24.0033 23.8096C24.0033 23.8096 23.796 23.4716 23.4554 23.2562C23 22.9666 22.4854 22.9331 22.4854 22.9331V22.7549Z" fill="white"/>
<path d="M22.177 22.7397V22.8957C22.177 22.8957 21.5402 22.8771 21.2366 22.8957C20.8368 22.9217 20.2666 23.0034 20.2666 23.0034L20.2851 22.866C20.2851 22.866 21.3366 22.6691 22.177 22.7397Z" fill="white"/>
<path d="M15.6199 22.8065C15.6199 22.8065 16.2197 22.2903 16.7973 22.0414C17.4378 21.7666 18.4707 21.3395 20.1627 21.2393C20.1627 21.2801 20.1627 21.3655 20.1627 21.3655C20.1627 21.3655 18.6928 21.3952 17.0564 22.0414C16.5899 22.2086 15.9161 22.5391 15.6162 22.8065H15.6199Z" fill="white"/>
<path d="M19.967 22.8877L19.9485 23.04C19.9485 23.04 17.9677 23.2368 16.7793 23.9758C17.3458 23.6007 18.2121 23.092 19.967 22.8877Z" fill="white"/>
<path d="M32.5213 17.9039C32.5213 17.9039 32.1289 17.9782 31.8623 18.8769C31.6439 19.6122 31.7327 19.9539 31.7327 19.9539C31.7327 19.9539 32.5509 19.2817 33.0359 19.226C33.0359 19.226 32.9582 18.6578 33.1914 18.3755C33.1914 18.3755 32.8434 17.7962 32.525 17.9002L32.5213 17.9039Z" fill="white"/>
<path d="M34.0469 18.398C33.8877 18.3014 33.6877 18.3126 33.5359 18.4203C33.4915 18.45 33.4545 18.4871 33.436 18.5243C33.3656 18.6505 33.3693 19.0479 33.399 19.1667C33.399 19.1667 34.0395 19.0219 34.4467 19.0813C34.3245 18.6802 34.2061 18.4946 34.0506 18.398H34.0469Z" fill="white"/>
<path d="M32.0031 20.6228L31.855 20.7974C31.855 20.7974 31.9401 21.6181 32.2622 22.4166C32.3141 22.5243 32.3696 22.6394 32.3696 22.6394C32.3696 22.6394 32.688 22.3646 32.9324 22.268C32.7546 21.4436 32.7361 20.2812 32.7917 20.1438C32.7917 20.1438 32.6473 20.1252 32.277 20.3777C32.1771 20.4483 32.0845 20.53 32.0031 20.6266V20.6228Z" fill="white"/>
<path d="M33.0029 20.0955C33.0029 20.0955 33.5213 21.6887 33.6138 21.8484C33.8137 21.7184 34.8245 21.3693 35.465 21.4102C35.6464 21.3507 35.7501 20.7194 35.6612 20.3889C35.5723 20.0621 35.3946 19.8578 35.2095 19.8355C35.0244 19.8132 34.0692 19.6907 33.0029 20.0918V20.0955Z" fill="white"/>
<path d="M33.9096 25.0204C33.9096 25.0204 34.339 24.649 34.787 24.7344C35.235 24.8199 34.6945 26.5393 34.1873 27.4046C33.68 28.2699 33.4986 28.3145 33.084 28.4408C31.5808 28.8901 29.9629 28.6525 29.9629 28.6525L30.3553 27.5235C30.3553 27.5235 31.3846 27.6497 32.0769 27.1038C32.6175 26.6805 33.506 25.2581 33.9096 25.0241V25.0204Z" fill="white"/>
<path d="M16.1572 26.3235C16.1572 26.3235 17.1791 25.785 18.3749 25.9818C19.5708 26.1786 20.974 27.1628 20.974 27.1628L19.4042 28.6446L23.4878 26.7171L25.1169 26.8137L25.3686 26.654C25.3686 26.654 23.125 26.3643 20.0595 25.6698C18.6674 25.3542 17.6678 25.1759 16.1572 26.3198V26.3235Z" fill="white"/>
<path d="M25.2429 26.732L20.5225 29.8107L23.5176 26.498L25.2429 26.732Z" fill="white"/>
<path d="M29.178 27.3485L27.8303 27.1999L26.8751 27.0254L24.2206 28.5443L21.4697 29.9258C21.4697 29.9258 23.0802 29.4988 24.65 28.7114C26.0236 28.0244 26.5123 27.6679 26.5123 27.6679C25.5534 29.4208 24.128 31.1105 24.128 31.1105C26.8381 29.3762 29.178 27.3448 29.178 27.3448V27.3485Z" fill="white"/>
<path d="M32.7622 23.4379C32.7622 23.4379 32.9288 23.6867 33.188 23.7053C33.4471 23.7238 34.0136 23.3599 34.5097 23.319C35.0058 23.2782 35.5945 23.1742 35.5945 23.1742C35.5945 23.1742 35.6056 22.398 35.3798 22.1269C35.3798 22.1269 34.1358 22.2532 32.7622 23.4379Z" fill="white"/>
<path d="M38.9636 21.6409C38.9636 21.6409 39.2783 21.7597 39.6115 22.2759C39.7336 22.4616 39.6411 23.3158 39.5744 23.4606C39.5078 23.6055 38.7525 23.2304 38.7155 23.0447C38.6785 22.859 38.8525 21.9417 38.7155 21.704C38.5785 21.4663 38.9636 21.6409 38.9636 21.6409Z" fill="white"/>
<path d="M39.9222 22.5578C39.9222 22.5578 39.8111 23.8725 39.8 24.2068C39.7889 24.541 40.2406 25.0052 40.3813 24.9458C40.522 24.8864 40.596 24.4853 40.596 24.4853C40.596 24.4853 40.7848 24.4964 40.7848 24.9495C40.7848 25.4026 40.8144 25.7331 41.1403 25.7777C41.4661 25.826 41.8881 25.4583 41.9548 25.2243C42.0214 24.9904 42.2917 23.8354 41.8511 23.6126C41.4105 23.3897 41.0662 23.49 41.0662 23.49C41.0662 23.49 40.8996 22.6655 40.5701 22.5541C40.2443 22.4427 39.9555 22.3722 39.9259 22.5541L39.9222 22.5578Z" fill="white"/>
<path d="M42.3882 24.2998C42.3882 24.2998 42.714 24.3592 43.0028 24.7232C43.2916 25.0871 43.0028 25.841 43.0028 25.841C43.0028 25.841 42.3882 26.2347 42.3142 25.737C42.2401 25.2394 42.3882 24.2998 42.3882 24.2998Z" fill="white"/>
<path d="M22.5254 19.6981C22.5254 19.6981 23.0067 19.7093 23.0622 19.8987C23.1178 20.0881 23.0215 21.1651 23.0215 21.1651L22.6142 21.0759C22.6142 21.0759 22.5994 19.8838 22.5254 19.6981Z" fill="white"/>
<path d="M22.6328 21.6475C22.6328 21.6475 22.6959 21.6512 22.7851 21.6735C22.8779 21.6957 22.9485 21.7254 22.9485 21.7254C22.9485 21.7254 22.9039 22.1488 22.7071 22.6316C22.6774 22.2862 22.6328 21.6475 22.6328 21.6475Z" fill="white"/>
<path d="M23.8327 12.9579L28.8012 16.9428L23.9141 13.6747L23.2773 12.5234L23.8327 12.9579Z" fill="white"/>
<path d="M38.7601 24.6185C38.7601 24.6185 38.96 24.8747 38.7601 25.0901C38.5602 25.3055 37.8715 26.0669 37.7975 26.3194C37.7234 26.5719 37.6605 26.7836 37.7975 27.0584C37.9345 27.3332 38.1344 27.7195 38.1233 27.8086C38.1122 27.8977 37.7494 28.0723 37.6013 27.6823C37.4495 27.2961 37.0755 25.5989 37.6013 24.8933C38.127 24.1877 38.7601 24.6185 38.7601 24.6185Z" fill="white"/>
<path d="M22.0815 20.7862C22.0815 20.7862 21.9998 20.4854 21.777 20.3888C21.7547 20.2514 21.6953 19.3749 21.6953 19.3749L22.0815 20.7862Z" fill="white"/>
<path d="M21.4738 22.5023C20.8999 22.4392 20.5186 22.2832 20.5186 22.2832L21.0184 22.6731H21.7514L21.9588 22.5209C21.9588 22.5209 21.5959 22.5135 21.4701 22.5023H21.4738Z" fill="#19398A"/>
<path d="M7.95617 0.293183L21.1254 10.8366C21.1254 10.8366 19.9851 10.1829 18.5856 10.3538C18.5856 10.3538 12.8136 6.17208 9.98505 3.34961C8.1487 1.51873 7.29346 0.553146 7.29346 0.553146C7.29346 0.553146 7.43415 0.434306 7.60815 0.319179C7.72293 0.244904 7.71182 0.233762 7.86362 0.244904C7.89694 0.244904 7.93026 0.263472 7.95617 0.285755V0.293183Z" fill="white"/>
<path d="M31.9404 20.4962C31.9404 20.4962 33.4954 19.0961 36.0944 19.8537C36.0944 19.8537 36.0574 19.5603 35.7872 19.4675C35.5169 19.3783 33.6472 18.9215 32.3921 19.7386C31.9404 20.0097 31.9775 20.2696 31.9404 20.4925V20.4962Z" fill="#19398A"/>
<path d="M39.8078 22.3011C40.5779 22.3011 40.7889 22.1934 41.1592 23.2481C41.6886 23.2481 42.1181 23.4561 42.2551 24.1394C42.7067 24.1394 43.2991 24.5219 43.3658 25.5729C43.7064 25.3278 43.7138 24.1208 42.6401 23.7123C42.392 23.2481 41.8367 22.4459 41.2073 22.6465C41.1592 22.2974 40.652 21.4432 39.9892 21.7366C39.8485 21.4135 39.2673 21.2464 38.8452 21.4135C38.8452 21.4135 39.6005 21.588 39.8041 22.2974L39.8078 22.3011Z" fill="#19398A"/>
<path d="M21.9516 20.634C21.8591 20.4929 21.7554 20.3926 21.6221 20.4297C21.1741 20.5634 20.8076 20.9794 20.8076 20.9794C20.8076 20.9794 21.2963 20.9905 21.5592 20.9794C21.922 20.9645 22.0479 21.0054 22.0479 21.0054C22.0479 21.0054 22.0479 20.7862 21.9479 20.634H21.9516Z" fill="#19398A"/>
<path d="M15.0803 16.2002C14.9655 16.1482 14.8322 16.1742 14.7507 16.2707L14.5249 16.527V16.8241L14.7211 16.6792L15.1691 16.8538L15.2358 16.5121C15.2617 16.3859 15.195 16.2559 15.0766 16.2002H15.0803Z" fill="#19398A"/>
<path d="M14.2914 20.9571L15.0763 20.4743L15.1244 19.4901L14.9356 19.609L13.8989 20.2775L14.2914 20.9571Z" fill="#19398A"/>
<path d="M25.9204 17.5474C25.9648 17.5177 25.9833 17.5028 26.0204 17.4583C25.8686 17.5066 25.5316 17.4917 24.9874 17.3654C23.3362 16.9792 23.1214 17.0052 23.1214 17.0052C22.866 16.9792 22.5328 16.9495 22.0515 16.9161C20.4113 16.7935 19.1858 16.9049 17.6013 17.1649C16.8127 17.2949 15.6908 17.8928 15.6908 17.8928C15.6279 18.2196 15.4502 20.329 15.4502 20.329C15.4502 20.329 16.5239 19.7237 17.5013 19.4229C17.4124 18.9141 17.5642 18.5761 17.6642 18.4164L17.9011 18.3682C17.9011 18.3682 19.1081 18.123 19.3006 18.1973C19.3525 18.2159 19.3932 18.253 19.4265 18.2976C19.3006 18.3013 19.1747 18.3273 19.0526 18.3607L17.8308 18.6801L19.0044 18.8807C19.1229 18.9327 19.2932 18.9364 19.4154 18.9252C19.582 18.9104 19.6523 18.8992 19.6523 18.8992C19.6523 18.8992 19.8189 18.8621 19.9596 18.8324C19.967 18.8324 19.9707 18.8324 19.9781 18.8324C20.341 18.7878 20.6631 18.7767 20.8593 18.7767C21.1037 18.7767 21.5776 18.7841 21.7256 18.8027C22.3587 18.8769 23.0696 19.0589 23.0696 19.0589C23.0696 19.0589 22.9141 18.8212 22.6512 18.6021C22.4809 18.4573 22.1218 18.2493 22.1218 18.2493C22.1218 18.2493 22.492 18.2716 22.7179 18.3199C22.9918 18.3793 23.0363 18.5984 23.114 18.7432C23.1399 18.7915 23.2436 19.0552 23.251 19.174L24.0137 19.4823L24.0433 19.4971C24.0433 19.4971 24.1507 19.4377 24.2766 19.3412C24.3839 19.4006 24.5135 19.486 24.5616 19.564C24.5987 19.6271 24.6135 19.7163 24.6098 19.8054C24.6579 19.8388 24.706 19.8759 24.7431 19.9131C24.7579 19.9279 24.7727 19.9428 24.7875 19.9577C24.8356 19.8537 24.8652 19.7571 24.8652 19.6828C24.8652 19.538 24.5579 19.3189 24.4172 19.2223C24.4321 19.2075 24.4469 19.1963 24.458 19.1815C24.6357 18.9958 24.8504 18.6987 24.8652 18.565C24.8726 18.4981 24.88 18.3533 24.8652 18.2233C24.8874 18.1825 24.9134 18.1453 24.9356 18.1193C25.0726 17.9559 25.5983 17.7702 25.9241 17.5586L25.9204 17.5474Z" fill="#19398A"/>
<path d="M43.6286 27.1702C43.6286 27.1702 43.3509 27.3708 43.0955 27.809C42.9733 28.0169 42.9289 28.1432 42.903 28.2881C42.8215 28.2843 42.7178 28.3215 42.6364 28.3215C41.7441 28.3326 41.422 28.0392 41.3258 28.0281C40.4113 27.3633 38.8859 26.2492 38.8489 26.1898C38.7971 26.1044 39.0118 25.8407 39.2413 25.5733C39.308 26.1155 39.9004 26.1452 39.9004 26.1452C39.9004 26.1452 39.9781 26.6577 40.4668 26.8805C40.9851 27.1182 41.3295 26.8285 41.3295 26.8285L41.7367 27.0551C42.2921 27.315 42.8696 26.966 42.9622 26.758C43.0548 26.5537 42.9622 26.2343 42.9622 26.2343C42.0996 26.5983 41.9144 25.5287 41.9144 25.5287C41.9144 25.5287 41.4887 26.3012 40.9444 26.0746C40.4002 25.8481 40.663 24.9048 40.663 24.9048C40.4816 25.3133 40.204 25.2613 39.8819 24.9939C39.6116 24.7711 39.4487 24.5409 39.6745 23.5307C39.5375 23.9615 38.8822 23.5753 38.5638 23.2485C38.4046 23.0851 38.3602 22.684 38.3528 22.32C38.4565 22.2829 38.5268 22.216 38.5379 22.0972C38.5897 21.4993 37.7049 19.739 37.5013 19.3453C37.5013 19.3453 37.4901 19.3156 37.4642 19.271V19.2636H37.4605C37.368 19.115 37.1125 18.8254 36.6312 19.0631C36.3869 18.7474 35.776 18.3426 35.2354 18.5766C35.0281 18.3314 34.2839 17.5033 33.4546 18.0343C33.4546 18.0343 33.1621 17.4476 32.529 17.6407C32.529 17.6407 33.2436 17.9341 33.3509 18.4429C33.5694 18.2497 33.8433 18.1383 34.258 18.2386C34.6727 18.3389 34.9726 18.7548 35.1355 19.0333C35.3169 18.9256 35.987 18.7697 36.5349 19.4939C36.82 19.2227 37.1495 19.2265 37.4753 19.3416C37.5346 19.687 37.7974 21.1799 37.7974 21.4993C37.7974 21.8632 37.1717 21.7667 37.1717 21.7667C37.1717 21.7667 37.2939 22.632 37.1717 23.2113C37.1162 23.4787 36.8867 23.6347 36.6497 23.7313C36.4794 23.6124 36.2721 23.4936 36.0129 23.4156C35.7278 23.3302 35.3613 23.3747 34.9985 23.4639C34.3469 23.449 33.8841 23.7201 33.6508 23.7758C33.636 23.7795 33.6175 23.7833 33.6027 23.787C33.5842 23.7907 33.562 23.7944 33.5361 23.8018C33.3472 23.839 33.1436 23.8538 33.0918 23.8575C33.0325 23.8575 32.9807 23.8538 32.9548 23.8352C32.703 23.6867 32.5883 23.4379 32.5883 23.4379C32.5883 23.4379 34.2691 21.5661 36.857 21.8892C36.7904 21.7593 36.5757 21.6516 36.4387 21.633C36.4276 21.4064 36.3535 20.5374 35.9241 20.2737C35.9241 20.2737 36.0425 21.4399 35.5871 21.5884C35.5871 21.5884 34.569 21.5439 33.5175 22.1083L32.9067 20.8419C32.9067 20.8419 32.8696 21.6813 33.0659 22.3497C32.7845 22.5094 32.5549 22.6654 32.2513 22.8957C31.8885 22.0935 31.522 20.9756 31.5479 19.8281C31.5664 19.0036 31.8774 18.0195 32.3772 17.6555C31.8774 17.7298 31.8404 17.8041 31.4887 18.6397C31.4294 18.7808 31.3776 18.9405 31.3369 19.1113L30.8445 18.8142C30.8445 18.8142 30.6186 19.0036 30.4853 19.2896C30.4742 18.7177 30.6186 18.2535 31 17.8821L30.8222 17.7187C30.8222 17.7187 30.3187 17.8895 30.2595 18.4354C30.1929 19.0259 30.1003 18.9628 30.1003 18.9628C30.1003 18.9628 29.93 18.74 29.9448 18.4131C29.9559 18.1235 30.2188 17.6593 30.6742 17.5813L9.21914 0.899017L9.28208 1.21469L29.4783 17.1542L29.1562 17.4736C29.1562 17.4736 28.0418 16.7828 26.3498 15.7021L23.6879 13.9715C24.1432 14.9965 24.4431 16.2146 24.4431 16.2146C25.4279 16.7865 26.0833 17.273 26.0833 17.273C28.0936 18.5171 29.5968 19.4864 29.5968 19.4864L30.4039 20.0138L31.1221 20.5411C31.0851 21.5179 31.3702 22.9402 31.6479 23.4564C31.9366 23.9987 32.3106 24.4592 32.6105 24.604C32.9067 24.7451 33.2806 24.6114 33.2954 24.604C33.3472 24.6189 33.4028 24.63 33.4583 24.6411C33.3509 24.7451 33.2325 24.8714 33.1658 24.9345C33.1658 24.9345 32.5697 25.5696 32.0107 26.0227C31.4516 26.4757 31.2739 26.498 30.6964 26.6094C30.1188 26.7171 29.2821 26.6354 28.4935 26.5797C28.2639 26.5649 27.6382 26.5463 27.6382 26.5463L27.3198 26.9362C27.3198 26.9362 27.6345 27.0142 28.3047 27.0699C28.7193 27.1034 29.1266 27.1479 29.5153 27.1851C28.3306 28.7374 26.3906 30.0595 26.3906 30.0595C27.7308 29.5359 28.3898 29.1868 28.9748 28.7968C28.5083 29.3242 28.0751 29.8627 27.6605 30.4123C27.2088 31.0164 26.7213 31.8025 26.198 32.7706C26.124 32.908 19.6005 33.6322 19.308 33.6582C19.5931 33.4465 21.1295 32.6035 21.8996 31.9795C23.499 30.6834 24.8874 29.5693 25.3761 28.5109C22.9104 30.3121 21.8996 30.8877 16.7941 32.0501C16.883 31.7939 17.716 31.1662 18.2047 30.78C20.7112 28.8043 20.1854 29.2165 21.7997 27.8944C20.4113 28.574 18.5194 29.4802 17.3606 30.0484C17.7012 29.729 17.753 29.6993 17.9863 29.5062C18.338 29.2091 18.6934 28.9157 19.0414 28.6149C19.408 28.2992 19.7671 27.9724 20.3187 27.4822C19.6338 27.0291 17.7752 25.7998 15.117 27.1851C15.639 26.1861 17.1384 24.6783 20.0522 25.3356C20.7445 25.4916 21.6071 25.7553 22.8511 26.0338C23.4768 26.1712 24.1136 26.2789 24.743 26.3977L26.0055 26.5983C25.117 27.1554 22.84 28.6 21.385 29.6102C21.385 29.6102 26.883 27.0477 27.2976 26.5054L26.3757 26.368L25.7019 26.2678C25.3687 26.2232 24.2802 25.9595 23.9211 25.889L22.9511 24.7934L23.2473 24.6151C23.2473 24.6151 24.3617 23.7944 24.5024 23.4899C24.6394 23.319 24.6542 23.1631 24.6579 23.0294C24.6653 22.8994 24.6171 22.7991 24.5764 22.736C24.6319 22.658 24.6727 22.58 24.6616 22.5131C24.6616 22.4909 24.6616 22.4649 24.6579 22.4389C24.6579 22.4537 24.6579 22.4612 24.6579 22.4612C24.6579 22.4612 24.6579 22.4463 24.6579 22.4277V22.4166C24.6431 22.3312 24.5505 22.1343 24.0581 21.9041C23.4768 21.6293 23.188 21.555 23.1288 21.5401C22.9437 21.4956 22.6845 21.4362 22.4402 21.3953C22.3402 20.6563 22.1107 19.7241 22.0107 19.323C22.3032 19.3713 22.6105 19.4381 22.9289 19.5384C23.0399 19.5718 23.1362 19.609 23.2362 19.6461C23.2436 19.9061 23.2473 20.5523 23.1695 21.2542C23.2547 21.2839 23.3954 21.3359 23.562 21.4027C23.5916 21.3025 23.6212 21.191 23.6508 21.0685L23.7767 21.4956C23.8804 21.5439 23.9877 21.5921 24.084 21.6478V21.5216C24.084 21.5216 24.0692 21.4956 24.1877 21.3953C24.2321 21.3582 24.3321 21.2616 24.4357 21.1539C24.4394 21.2913 24.4431 21.6144 24.4135 21.8632C24.4468 21.8929 24.4764 21.9189 24.5024 21.9487C24.5246 21.9784 24.5468 22.0081 24.5616 22.0378C24.5949 21.8001 24.6542 21.3136 24.6319 20.9534C24.6468 20.9385 24.6616 20.9237 24.6764 20.9088C24.7504 20.9014 24.8282 20.8679 24.8911 20.7751C24.9874 20.6377 25.0059 20.478 24.98 20.3517C24.9763 20.348 24.7319 20.1252 24.3395 19.8949C24.1655 19.791 24.0248 19.7204 23.9174 19.6721C23.7915 19.6201 22.9733 19.2747 22.5512 19.1782C22.0958 19.0705 21.1814 18.9034 20.2262 19.0111C19.3154 19.115 18.301 19.3045 17.6345 19.5644C16.9681 19.8244 16.4535 19.9469 15.4391 20.5226C15.2539 20.6303 15.1318 20.9496 15.1318 20.9496C15.1318 20.9496 15.2465 20.8828 15.4428 20.7788L15.3132 21.4436L14.7615 22.4649C14.7615 22.4649 14.8948 22.7397 15.1318 23.1408C15.228 22.9959 15.8056 22.5763 15.887 22.5169C15.887 22.5169 16.5905 21.9784 17.5346 21.6813C18.3195 21.4324 18.7082 21.347 18.7082 21.347C17.8752 20.53 17.5346 19.9544 17.5087 19.9098C18.786 19.4567 19.5153 19.3676 20.1595 19.2933C20.1929 19.2896 20.2299 19.2859 20.2669 19.2822L20.2336 21.4064C19.719 21.451 19.1821 21.5216 18.7082 21.6293C17.4457 21.9189 16.6534 22.3015 16.224 22.554C15.7945 22.8102 15.2317 23.3042 15.2317 23.3042L15.3095 23.4267L16.6053 23.9392C16.6053 23.9392 17.3235 23.5493 17.4976 23.4676C17.9492 23.2559 18.786 23.0516 19.1562 22.9848C19.1562 22.9848 18.6786 22.5874 18.5823 22.4834C18.2824 22.1529 18.1714 22.0006 18.1344 21.9524C18.7082 21.7258 19.93 21.5958 20.2188 21.5773C20.1929 21.8001 20.0855 22.6134 19.9781 23.0851C19.8226 23.1111 19.6597 23.1371 19.4746 23.1631C18.6268 23.2819 17.5975 23.6496 17.1717 23.8427C16.857 23.9875 16.6793 24.1101 16.6053 24.1621L16.3017 24.0915L14.8615 23.423C14.7911 23.3339 14.6949 23.1445 14.5949 22.9365L14.6431 22.0489L15.1281 20.9496L14.2876 21.4399L14.1618 21.2319L13.5027 20.1363L13.7952 19.9358L15.1392 19.1039L15.1725 18.1272C14.8245 18.2757 13.91 18.8737 13.7545 19.0593C13.736 19.0816 13.7175 19.1076 13.699 19.1336L13.6545 18.7585C13.6767 18.7362 13.7027 18.7102 13.736 18.6768C13.9618 18.4614 15.228 17.6741 15.228 17.6741L15.2873 17.0873C15.2836 17.117 15.2576 17.2099 15.091 17.2767C14.8874 17.3584 14.5616 17.3064 14.2987 17.3102C13.8434 17.3139 13.7064 17.9452 13.7064 17.9452L13.6175 18.506L13.5027 18.4169C13.5287 18.0789 13.5694 17.689 13.6286 17.5367C13.7434 17.247 14.3321 16.9351 14.3321 16.9351C14.3321 16.9351 14.3061 16.4931 14.5098 16.2592C14.7134 16.0252 14.917 15.9286 14.917 15.9286C14.917 15.9286 15.3798 15.7727 15.6205 16.0623C15.6205 16.0623 15.7352 16.3 15.7093 16.6602C15.6686 17.221 15.6686 17.3622 15.6686 17.3622C15.6686 17.3622 16.0203 17.0799 16.7756 16.7679C16.8385 16.378 17.1125 14.4134 16.3869 12.9985C16.3869 12.9985 17.1643 13.7524 17.268 15.2193C17.3309 16.1477 17.3013 16.4411 17.2976 16.5674C17.8011 16.3817 18.275 16.2592 19.0636 16.1218C22.0996 15.7615 23.1917 16.0289 23.1917 16.0289C23.1917 16.0289 22.877 13.0839 21.3776 12.1072C19.8263 10.9485 17.4235 11.2047 17.4235 11.2047C17.4235 11.2047 17.679 11.0339 18.4713 10.915C19.5005 10.7628 20.7704 11.0227 20.7704 11.0227C20.241 10.7591 19.5264 10.5177 18.4491 10.566C16.4424 9.13615 14.5579 7.71749 13.1621 6.50309C7.95664 1.95001 7.094 0.475647 7.094 0.475647C7.094 0.475647 6.79781 0.787604 7.06068 1.26297C7.32354 1.73833 10.2262 6.33969 11.7293 7.92547C12.7882 9.0396 14.3802 10.046 16.1092 11.1973C15.7352 11.409 15.4687 11.617 15.3354 11.7358C15.3354 11.7358 14.1395 12.3189 13.636 13.8266C13.325 14.7514 13.4361 17.4253 13.4361 17.4253C13.4361 17.4253 13.0585 17.4513 13.014 17.5404C12.9696 17.6295 12.8807 18.2757 12.8844 18.3946C12.8881 18.5134 12.9252 18.688 13.0436 18.7808L13.0585 19.739L13.0918 20.4966L13.5805 21.399C12.7845 21.3099 11.622 21.3545 10.3706 22.0006C8.09363 23.1779 7.87149 24.3366 6.03513 23.4156C6.03513 23.4156 6.54235 25.1796 9.19322 24.656C9.19322 24.656 8.82299 25.8592 7.33095 26.498C6.60899 26.8063 4.5542 26.8174 4.5542 26.8174C4.5542 26.8174 6.43498 27.8981 8.56753 27.7867C7.84187 28.2806 6.17582 28.5814 6.17582 28.5814C9.37464 29.963 11.6034 27.887 12.3143 26.7394C12.6882 26.1304 13.1214 25.7144 13.5212 25.4285C13.6027 25.6216 13.6656 25.6773 13.6916 25.7293C10.9037 28.5183 10.6519 32.6963 10.5557 36.2578C10.1817 39.136 11.0074 48.9403 11.0074 48.9403L22.6623 35.3962C22.5549 36.2689 22.3032 37.3868 22.1588 37.9104C21.2887 40.8852 16.609 48.7843 16.609 48.7843C18.2195 47.1688 21.833 41.9584 23.8471 38.7089C23.562 39.5408 22.2513 47.7631 22.2513 47.7631C23.1732 43.8339 26.1314 38.4489 26.6016 37.2308C26.9126 36.4286 26.4165 35.1474 26.0425 34.3712C27.1088 35.1734 29.2562 36.6737 30.8445 37.06C30.3558 37.8844 30.9703 38.6049 31.7367 38.3932C32.5846 38.1592 38.0048 34.3823 38.6527 33.8587C39.1932 33.4205 39.3635 32.7334 39.4043 32.5218C39.4598 32.5218 39.5042 32.5218 39.5301 32.5069C39.756 32.4141 40.9814 30.962 41.1184 30.8914C41.1888 30.8543 41.1851 30.7243 41.1666 30.6092C41.3961 30.4643 41.6664 29.9333 41.8663 29.4579C42.1144 28.8674 42.0144 28.5072 42.0144 28.5072C42.1588 28.5629 42.4031 28.6074 42.5883 28.5963C42.903 28.5777 43.0844 28.6371 43.0844 28.6371C43.0844 28.6371 43.151 28.5889 43.1806 28.574C43.4546 28.4552 43.9248 27.835 44.0248 27.523C44.1321 27.1888 43.9285 26.966 43.6471 27.1554L43.6286 27.1702ZM24.5431 23.1891C24.5061 23.3265 24.2876 23.4044 24.2099 23.4304C24.2099 23.3376 24.2136 23.2262 24.2136 23.1073C24.2543 23.0776 24.3135 23.0294 24.3802 22.9699C24.4579 23.0034 24.5764 23.0776 24.5431 23.1891ZM24.4468 22.2643C24.4431 22.3535 24.4061 22.5317 24.2025 22.6617C24.1914 22.4574 24.1692 22.2569 24.1395 22.0898C24.2358 22.1381 24.3543 22.2012 24.4505 22.2643H24.4468ZM24.5727 20.296C24.6468 20.348 24.6838 20.3777 24.6838 20.3777C24.6838 20.3777 24.78 20.4371 24.7689 20.5523C24.7652 20.6117 24.6875 20.7008 24.6134 20.7677L24.5061 20.3777C24.5283 20.3517 24.5505 20.322 24.5727 20.2923V20.296ZM24.01 21.2727L23.8841 20.8902C24.047 20.7788 24.2247 20.6451 24.3543 20.5337L24.4283 20.9385C24.2506 21.0871 24.01 21.2727 24.01 21.2727ZM23.91 19.9209C24.1136 20.0175 24.2802 20.1103 24.3987 20.1846C24.2173 20.322 23.9063 20.5337 23.7767 20.6228C23.8396 20.348 23.8952 20.0918 23.91 19.9247V19.9209ZM22.4661 21.5624C22.6364 21.5847 23.0473 21.6924 23.1214 21.7147C23.0807 22.0675 22.9622 22.4723 22.8622 22.7583C22.9215 22.7768 23.0177 22.8102 23.1325 22.8585C23.2917 22.4871 23.4213 22.0081 23.4657 21.8298C23.6804 21.9041 23.8693 21.9709 23.9396 21.9969C23.9581 22.1603 24.01 22.606 24.0248 23.0554C24.0322 23.2708 24.0063 23.449 23.9766 23.5901C23.9914 23.6236 24.0063 23.657 24.0174 23.6941C24.0174 23.6941 24.0248 23.761 24.0174 23.9021C24.0174 23.9021 23.8582 23.501 23.3065 23.2002C23.114 23.0962 22.9104 23.0405 22.7734 23.0071C22.7734 23.0071 22.6438 22.9774 22.4513 22.9551C22.4513 22.7843 22.4587 22.4017 22.4698 21.5624H22.4661ZM22.4439 23.1259C22.5105 23.1333 22.5883 23.1482 22.6697 23.1668C22.6327 23.3302 22.4735 23.6199 22.3254 23.865C22.3883 23.5679 22.4328 23.2225 22.4439 23.1259ZM20.5187 19.2599C20.8704 19.2339 21.285 19.2302 21.7515 19.2822C21.8145 19.5013 21.9107 19.8578 21.9737 20.1512C22.0921 20.7194 22.1958 21.191 22.2328 21.3656C22.2217 21.3656 22.2106 21.3656 22.1995 21.3619C21.9255 21.3359 21.2443 21.3322 20.4779 21.3879C20.489 21.0351 20.5113 19.7315 20.5187 19.2636V19.2599ZM20.4668 21.5624C21.0148 21.5253 21.8071 21.4956 22.2513 21.5364V21.763C22.1921 21.7333 22.1107 21.6998 22.0107 21.685C21.8959 21.6701 21.8441 21.7741 21.5553 21.6887C21.3702 21.633 21.1888 21.5921 20.826 21.8372C20.5779 22.0044 20.552 22.0898 20.552 22.0898C20.552 22.0898 21.4331 22.19 21.7034 22.19C21.9811 22.19 22.1514 22.1641 22.2513 22.1455V22.9328C22.2032 22.9328 22.1551 22.9291 22.107 22.9291C21.1703 22.9142 20.7001 22.9699 20.2299 23.0442C20.2891 22.7285 20.4409 21.9152 20.4705 21.5587L20.4668 21.5624ZM19.9596 23.2596C19.8745 23.579 19.7523 23.9652 19.6708 24.2066L19.3746 23.4379L19.3376 23.3599C19.5561 23.319 19.7634 23.2856 19.9596 23.2596ZM17.1421 24.0655L18.7008 24.3923L19.5968 24.4443C19.5968 24.4443 19.7745 24.5371 19.9522 24.1249C20.0966 23.7907 20.1743 23.3747 20.1966 23.2299C21.3776 23.0776 22.1218 23.1111 22.1218 23.1111C22.1218 23.1111 22.1662 23.1111 22.2439 23.1111C22.2365 23.2633 22.1921 23.5419 22.1477 23.7944L20.1669 23.8241C20.1669 23.8241 20.141 23.9727 20.0929 24.0952C20.0337 24.2363 19.9522 24.3515 19.9522 24.3515C19.9522 24.3515 21.659 24.3589 22.0958 24.2995H22.1181L22.181 24.292L22.4661 24.266C22.6919 23.9355 22.8807 23.4676 22.9585 23.2522C23.114 23.3116 23.2806 23.3896 23.4324 23.5047C23.6064 23.6347 23.7101 23.7461 23.7656 23.8204C23.4546 24.0915 23.0103 24.4406 22.5809 24.6597C21.6701 24.6746 20.8519 24.6746 19.8152 24.6783C19.4154 24.6783 19.0562 24.6671 18.7119 24.6523L16.8645 24.2141C16.9348 24.1732 17.02 24.1212 17.1384 24.0618L17.1421 24.0655ZM29.9781 34.1707C29.6412 34.2338 29.3117 34.2895 29.0118 34.3266C28.7934 34.3526 28.5749 34.2784 28.4194 34.1224C27.9566 33.6582 28.4194 33.5393 28.4194 33.5393L30.1299 33.2014C30.0448 33.5542 29.9966 33.8773 29.9818 34.1744L29.9781 34.1707ZM30.626 30.8171C30.626 30.8171 29.6338 30.8728 28.7749 30.6314C29.1525 29.6844 29.5783 28.652 29.8893 27.8684C30.0151 27.6233 30.0892 27.393 30.1262 27.2371C30.7778 27.2668 31.3295 27.2222 31.6886 26.9585C32.2402 26.5537 33.4731 25.1314 33.8804 24.656C34.0618 24.6374 34.1951 24.6003 34.1951 24.6003C34.6245 24.5 34.8245 24.4629 34.98 24.4554C35.0429 24.4554 35.7982 24.5074 36.0944 24.8343L36.1018 24.8454C36.4276 25.2168 36.5349 25.7181 36.5201 26.2158C36.4535 28.1284 34.6616 30.3603 34.3765 30.416C34.0692 30.4755 33.3139 30.8431 30.6223 30.8171H30.626ZM31.1666 33.9107C31.174 33.5208 31.248 33.1902 31.3258 32.96L31.8145 32.8634H31.833C31.833 32.8634 32.8919 32.6666 34.2913 32.0241C34.2691 32.2729 34.2654 32.5886 34.3209 32.9154C33.2362 33.3351 32.1625 33.6693 31.1666 33.9144V33.9107ZM31.6145 35.2737L34.358 33.1048C34.4616 33.5245 34.6801 33.9441 35.1021 34.2301C33.1769 34.8911 31.6145 35.2737 31.6145 35.2737ZM38.1603 33.0194C37.6382 33.2608 37.1051 33.4873 36.572 33.6953C35.9944 33.3871 35.2058 32.7223 35.3798 31.4559C35.8167 31.2034 36.2647 30.9063 36.709 30.5646C36.9644 31.0251 37.5013 31.519 37.5013 31.519C37.5013 31.519 37.8641 30.52 37.5901 30.3121C37.3198 30.1078 36.8941 29.3353 36.8941 29.3353C36.8941 29.3353 36.6386 29.6102 36.5757 30.1078C36.572 30.1487 36.5757 30.1895 36.5831 30.2341C36.2536 30.4458 34.1655 31.753 32.2365 32.2506L34.3913 31.2851C34.6653 31.2219 36.161 30.2489 36.7571 27.6604C36.8941 27.9872 37.0422 28.3252 36.9792 28.678C36.8645 29.3428 37.7493 30.0632 38.4083 30.5386C37.9085 30.676 37.616 31.9275 37.7493 32.0835C37.8382 32.1875 38.4602 32.3769 38.9526 32.4735C38.7749 32.5886 38.4676 32.7929 38.164 33.0194H38.1603ZM40.2447 30.6612C39.8596 30.5794 38.6342 29.6993 38.0455 29.3576C37.4568 29.016 37.4346 28.3586 37.4346 28.1506C37.4346 28.0392 37.3458 27.835 37.2458 27.5936C37.2421 27.575 37.057 26.8694 37.0755 26.2826C37.094 25.707 37.2125 25.2948 37.3124 25.0422C37.5494 24.4554 37.9418 24.2178 38.2158 24.1212C38.3232 24.2883 38.4528 24.3849 38.612 24.3515C39.2117 24.2252 39.1266 24.9308 39.0229 25.0794C38.7378 25.4136 38.2454 25.8035 38.0455 26.2603C37.7974 26.8285 38.2713 27.2593 38.475 27.809C38.6786 28.3586 40.4335 29.7401 40.4335 29.7401L40.5372 28.5629L40.9666 30.5423C40.7889 30.6686 40.5409 30.7243 40.241 30.6574L40.2447 30.6612Z" fill="#19398A"/>
<path d="M22.4801 9.49677C22.5282 9.51163 22.5727 9.52648 22.6208 9.54505C26.3935 11.1828 29.0184 13.4334 30.7918 15.9587L31.4064 16.4341C31.6026 16.3524 31.8248 16.293 32.0802 16.2558L32.2209 16.2373C32.3727 16.2038 32.5282 16.189 32.6763 16.189C33.0391 16.189 33.3909 16.2818 33.7093 16.4564C33.7796 16.4489 33.85 16.4452 33.9203 16.4452C34.3424 16.4452 34.9718 16.5604 35.6382 17.0989C36.1935 17.136 36.6452 17.3514 36.9562 17.5631C37.5856 17.5891 38.1484 17.9085 38.5149 18.4507L38.5667 18.5175L38.6112 18.6066L38.6519 18.6846C38.6667 18.7143 38.6778 18.7366 38.6852 18.7552C38.8037 18.9854 39.0295 19.4385 39.2517 19.9399C39.5219 19.951 39.7811 20.0104 40.018 20.0996C38.5519 15.5985 35.4901 10.5663 29.2331 7.70674C25.0273 5.783 21.188 5.47105 17.9077 5.9427L22.4727 9.49306L22.4801 9.49677Z" fill="url(#paint0_radial_4826_2445)"/>
<path d="M9.15223 44.1425C4.0393 42.0145 1.11816 38.3156 1.11816 38.3156C2.62872 42.1408 5.65352 45.2009 9.35585 47.1878C9.29292 46.3374 9.21887 45.2789 9.15223 44.1425Z" fill="url(#paint1_radial_4826_2445)"/>
<path d="M39.43 34.9691C39.2078 35.1511 33.3063 39.4071 32.0031 39.7636C31.7921 39.8193 31.5773 39.849 31.3663 39.849C30.748 39.849 30.1852 39.6076 29.778 39.188C28.397 40.7477 26.9013 41.9881 25.3796 42.9426C24.6206 44.6546 23.8876 46.5115 23.5173 48.0899L23.2471 49.3637C24.9353 49.0294 26.5866 48.4687 28.1379 47.6479C34.554 44.2684 38.1601 38.954 39.9187 34.4641C39.7817 34.6386 39.6188 34.8094 39.4263 34.9654L39.43 34.9691Z" fill="url(#paint2_radial_4826_2445)"/>
<path d="M6.30859 11.6734C7.69697 10.8044 9.32229 9.99107 11.1364 9.408C10.955 9.24088 10.781 9.07376 10.6181 8.90293C10.5367 8.81751 10.4552 8.72467 10.3664 8.62811C7.77842 10.1359 6.30859 11.6734 6.30859 11.6734Z" fill="url(#paint3_radial_4826_2445)"/>
<path d="M9.6779 7.7807C9.47797 7.52445 9.27064 7.24592 9.05961 6.95996C0.377637 9.97925 0 19.6313 0 19.6313C2.16586 12.98 6.37542 9.5336 9.6779 7.7807Z" fill="url(#paint4_linear_4826_2445)"/>
<path d="M8.95656 37.7323C-0.162289 33.7177 0.0154225 24.2662 0.0709575 23.1632C-0.643593 33.4466 4.36196 37.9849 8.97136 39.9903C8.95285 39.177 8.94545 38.4082 8.96026 37.7323H8.95656Z" fill="url(#paint5_linear_4826_2445)"/>
<path d="M0.0708008 23.1635C0.0708008 23.1263 0.0708008 23.0929 0.0782283 23.0558C0.0782283 23.0558 0.0782283 23.0929 0.0708008 23.1635Z" fill="url(#paint6_linear_4826_2445)"/>
<path d="M3.12951 41.9177C3.08123 41.8472 3.02552 41.7766 2.98096 41.7061C2.98096 41.7061 3.02924 41.784 3.12951 41.9177Z" fill="url(#paint7_linear_4826_2445)"/>
<path d="M40.4826 33.4842C40.3123 33.9299 39.9939 34.5129 39.4311 34.9697C39.3645 35.0254 38.7832 35.4451 37.9724 36.0207C36.8802 38.2379 35.4215 40.2767 33.5444 42.1447C30.7973 44.8781 27.3615 46.7387 23.6333 47.6485C23.5926 47.8008 23.5555 47.9494 23.5185 48.0942L23.1631 49.7617C26.5914 49.3197 29.9532 48.0273 32.841 45.6431C37.7244 41.6137 39.9235 37.1274 40.8121 33.1611C40.6825 33.2948 40.5715 33.4025 40.4789 33.4842H40.4826Z" fill="url(#paint8_linear_4826_2445)"/>
<path d="M9.30391 46.4935C5.52012 44.852 3.63934 42.6126 3.12842 41.9182C4.55382 43.9979 6.73819 45.8287 9.35574 47.2103C9.34093 46.9837 9.32242 46.746 9.30391 46.4898V46.4935Z" fill="url(#paint9_linear_4826_2445)"/>
<path d="M1.6213 25.485C1.79161 22.6997 2.67646 17.9609 6.44914 14.8042C8.14111 13.3893 10.0885 12.4274 12.9023 12.0077C13.1133 11.7106 13.3355 11.4581 13.5502 11.2538C12.4913 10.5334 11.4325 9.7609 10.618 8.90673C10.6106 8.89931 10.5995 8.88816 10.5921 8.88074C7.09705 10.3291 4.0093 13.3298 1.95821 18.3434C1.04003 21.0768 0.92526 23.4536 1.16591 25.4553C1.28439 25.4664 1.43988 25.4776 1.6176 25.4887L1.6213 25.485Z" fill="url(#paint10_linear_4826_2445)"/>
<path d="M31.4065 16.4341C31.4361 16.423 31.4657 16.4156 31.4953 16.4044C30.2958 14.2059 28.4742 12.1744 25.7641 10.5961C24.3757 9.78648 22.9096 9.13657 21.4102 8.66492L31.4028 16.4378L31.4065 16.4341Z" fill="url(#paint11_linear_4826_2445)"/>
<path d="M1.61426 27.7235C1.61426 27.7235 1.62173 27.7497 1.62547 27.7609V27.7272H1.61426V27.7235Z" fill="url(#paint12_linear_4826_2445)"/>
<path d="M3.53551 25.5848C3.60215 25.5848 3.6688 25.5848 3.72803 25.5848C4.3019 25.5848 4.79801 25.5031 5.16084 25.3583C3.92056 23.8431 4.20563 21.6817 4.22044 21.5851L4.39445 20.3596L5.03866 21.418C5.06087 21.4551 5.64584 22.365 6.73063 22.365C6.82318 22.365 6.91574 22.3576 7.012 22.3464C7.45258 22.287 7.76358 22.0605 8.19675 21.7448L8.31152 21.6594C8.85576 21.2657 9.63696 20.8461 10.3737 20.5267C10.6588 19.8508 11.0068 19.2491 11.403 18.7181C11.3882 18.6252 11.3771 18.5361 11.3734 18.4433C11.3696 18.3133 11.4326 17.3551 11.6547 16.9132C11.7214 16.7795 11.8065 16.6606 11.9065 16.5529C11.8991 15.4834 11.9472 14.1353 12.2027 13.3814C12.5285 12.4121 13.0542 11.7213 13.5466 11.2534C13.2393 11.0454 12.9357 10.8337 12.6358 10.6183C4.96091 12.5829 0.825406 19.3011 1.24377 25.4549C1.74358 25.492 2.70249 25.5626 3.53551 25.5848Z" fill="url(#paint13_radial_4826_2445)"/>
<path d="M9.04805 36.1617C9.07027 35.3966 9.10359 34.6204 9.15912 33.8405C7.8559 32.6781 6.96364 31.434 6.36756 30.2048C6.08249 30.1231 5.79741 30.0154 5.51603 29.8854C3.42051 28.9161 2.19133 28.1325 1.61377 27.724C1.61377 27.7351 1.61747 27.75 1.62117 27.7611C2.94661 32.6818 6.06397 35.2889 8.99622 36.7076C9.01103 36.5107 9.02584 36.3251 9.04435 36.1579L9.04805 36.1617Z" fill="url(#paint14_radial_4826_2445)"/>
<path d="M16.4032 5.22388C23.5672 5.27959 34.1337 7.73439 39.6946 20.4058C39.7982 20.4318 39.8982 20.4652 39.9944 20.506C39.6649 17.8655 37.6657 8.98964 25.5146 4.76709C21.5679 3.61582 17.9359 3.64924 15 4.13574L16.3995 5.22388H16.4032Z" fill="url(#paint15_linear_4826_2445)"/>
<path d="M30.3812 5.04024C36.9454 8.92856 39.8517 15.4165 41.1364 20.5081C41.4844 20.6901 41.7991 20.9723 42.0546 21.3363C42.0694 21.3437 42.0842 21.3511 42.1027 21.3548C40.8625 10.5552 34.0428 4.80999 29.4074 2.71914C23.1209 -0.114465 17.523 1.01823 16.2642 1.60872C18.9632 1.42303 24.1649 1.35619 30.3812 5.04024Z" fill="url(#paint16_linear_4826_2445)"/>
</g>
<defs>
<radialGradient id="paint0_radial_4826_2445" cx="0" cy="0" r="1" gradientUnits="userSpaceOnUse" gradientTransform="translate(10.1106 59.3912) scale(57.4565 57.634)">
<stop stop-color="#EB008B"/>
<stop offset="0.18" stop-color="#EB0388"/>
<stop offset="0.35" stop-color="#EC0E80"/>
<stop offset="0.5" stop-color="#ED2072"/>
<stop offset="0.65" stop-color="#EF3A5E"/>
<stop offset="0.8" stop-color="#F25B45"/>
<stop offset="0.94" stop-color="#F68326"/>
<stop offset="0.98" stop-color="#F78F1E"/>
</radialGradient>
<radialGradient id="paint1_radial_4826_2445" cx="0" cy="0" r="1" gradientUnits="userSpaceOnUse" gradientTransform="translate(10.1111 59.3912) scale(57.4565 57.634)">
<stop stop-color="#EB008B"/>
<stop offset="0.2" stop-color="#ED1878"/>
<stop offset="0.62" stop-color="#F25549"/>
<stop offset="0.98" stop-color="#F78F1E"/>
</radialGradient>
<radialGradient id="paint2_radial_4826_2445" cx="0" cy="0" r="1" gradientUnits="userSpaceOnUse" gradientTransform="translate(10.1112 59.3909) scale(57.4565 57.634)">
<stop stop-color="#EB008B"/>
<stop offset="0.2" stop-color="#ED1878"/>
<stop offset="0.62" stop-color="#F25549"/>
<stop offset="0.98" stop-color="#F78F1E"/>
</radialGradient>
<radialGradient id="paint3_radial_4826_2445" cx="0" cy="0" r="1" gradientUnits="userSpaceOnUse" gradientTransform="translate(7.16753 11.6883) scale(6.61977 6.64022)">
<stop stop-color="#EB008B"/>
<stop offset="0.2" stop-color="#ED1878"/>
<stop offset="0.62" stop-color="#F25549"/>
<stop offset="0.98" stop-color="#F78F1E"/>
</radialGradient>
<linearGradient id="paint4_linear_4826_2445" x1="0" y1="13.2956" x2="9.6779" y2="13.2956" gradientUnits="userSpaceOnUse">
<stop stop-color="#EB008B"/>
<stop offset="0.2" stop-color="#ED1878"/>
<stop offset="0.62" stop-color="#F25549"/>
<stop offset="0.98" stop-color="#F78F1E"/>
</linearGradient>
<linearGradient id="paint5_linear_4826_2445" x1="-3.3463" y1="23.5123" x2="21.5261" y2="52.7457" gradientUnits="userSpaceOnUse">
<stop offset="0.24" stop-color="#EC297B"/>
<stop offset="0.43" stop-color="#D32D80"/>
<stop offset="0.81" stop-color="#96388F"/>
<stop offset="1" stop-color="#773E97"/>
</linearGradient>
<linearGradient id="paint6_linear_4826_2445" x1="-1.16217" y1="21.652" x2="23.6975" y2="50.961" gradientUnits="userSpaceOnUse">
<stop offset="0.24" stop-color="#EC297B"/>
<stop offset="0.43" stop-color="#D32D80"/>
<stop offset="0.81" stop-color="#96388F"/>
<stop offset="1" stop-color="#773E97"/>
</linearGradient>
<linearGradient id="paint7_linear_4826_2445" x1="14.7833" y1="12.9875" x2="0.0210728" y2="49.2636" gradientUnits="userSpaceOnUse">
<stop offset="0.24" stop-color="#EC297B"/>
<stop offset="0.43" stop-color="#D32D80"/>
<stop offset="0.81" stop-color="#96388F"/>
<stop offset="1" stop-color="#773E97"/>
</linearGradient>
<linearGradient id="paint8_linear_4826_2445" x1="39.42" y1="23.056" x2="24.6215" y2="59.3002" gradientUnits="userSpaceOnUse">
<stop offset="0.24" stop-color="#EC297B"/>
<stop offset="0.43" stop-color="#D32D80"/>
<stop offset="0.81" stop-color="#96388F"/>
<stop offset="1" stop-color="#773E97"/>
</linearGradient>
<linearGradient id="paint9_linear_4826_2445" x1="18.4413" y1="14.4957" x2="3.64644" y2="50.7399" gradientUnits="userSpaceOnUse">
<stop offset="0.24" stop-color="#EC297B"/>
<stop offset="0.43" stop-color="#D32D80"/>
<stop offset="0.81" stop-color="#96388F"/>
<stop offset="1" stop-color="#773E97"/>
</linearGradient>
<linearGradient id="paint10_linear_4826_2445" x1="-4.18766" y1="21.515" x2="33.8741" y2="5.5739" gradientUnits="userSpaceOnUse">
<stop offset="0.39" stop-color="#EC297B"/>
<stop offset="0.54" stop-color="#D32D80"/>
<stop offset="0.85" stop-color="#96388F"/>
<stop offset="1" stop-color="#773E97"/>
</linearGradient>
<linearGradient id="paint11_linear_4826_2445" x1="-2.78829" y1="24.8569" x2="35.2735" y2="8.91587" gradientUnits="userSpaceOnUse">
<stop offset="0.24" stop-color="#EC297B"/>
<stop offset="0.43" stop-color="#D32D80"/>
<stop offset="0.81" stop-color="#96388F"/>
<stop offset="1" stop-color="#773E97"/>
</linearGradient>
<linearGradient id="paint12_linear_4826_2445" x1="-1.12457" y1="28.893" x2="37.2526" y2="12.7701" gradientUnits="userSpaceOnUse">
<stop offset="0.24" stop-color="#EC297B"/>
<stop offset="0.43" stop-color="#D32D80"/>
<stop offset="0.81" stop-color="#96388F"/>
<stop offset="1" stop-color="#773E97"/>
</linearGradient>
<radialGradient id="paint13_radial_4826_2445" cx="0" cy="0" r="1" gradientUnits="userSpaceOnUse" gradientTransform="translate(30.7254 16.9206) scale(25.1166 25.1942)">
<stop stop-color="#EB008B"/>
<stop offset="0.13" stop-color="#EB0884"/>
<stop offset="0.32" stop-color="#ED1E73"/>
<stop offset="0.57" stop-color="#F04258"/>
<stop offset="0.85" stop-color="#F47431"/>
<stop offset="0.98" stop-color="#F78F1E"/>
</radialGradient>
<radialGradient id="paint14_radial_4826_2445" cx="0" cy="0" r="1" gradientUnits="userSpaceOnUse" gradientTransform="translate(25.2976 19.1043) scale(25.1166 25.1942)">
<stop stop-color="#EB008B"/>
<stop offset="0.2" stop-color="#ED1878"/>
<stop offset="0.62" stop-color="#F25549"/>
<stop offset="0.98" stop-color="#F78F1E"/>
</radialGradient>
<linearGradient id="paint15_linear_4826_2445" x1="36.107" y1="24.5615" x2="23.1363" y2="4.10131" gradientUnits="userSpaceOnUse">
<stop offset="0.24" stop-color="#EC297B"/>
<stop offset="0.43" stop-color="#D32D80"/>
<stop offset="0.81" stop-color="#96388F"/>
<stop offset="1" stop-color="#773E97"/>
</linearGradient>
<linearGradient id="paint16_linear_4826_2445" x1="14.8277" y1="1.29305" x2="43.4202" y2="15.8724" gradientUnits="userSpaceOnUse">
<stop stop-color="#EB008B"/>
<stop offset="0.2" stop-color="#ED1878"/>
<stop offset="0.62" stop-color="#F25549"/>
<stop offset="0.98" stop-color="#F78F1E"/>
</linearGradient>
<clipPath id="clip0_4826_2445">
<rect width="100" height="49.7608" fill="white"/>
</clipPath>
</defs>
</svg>
